<svg width="48px" height="48px" viewBox="0 0 0.96 0.96" xmlns="http://www.w3.org/2000/svg"><path d="M0.48 0C0.215 0 0 0.215 0 0.48s0.215 0.48 0.48 0.48 0.48 -0.215 0.48 -0.48 -0.215 -0.48 -0.48 -0.48zm0 0.12c0.2 0 0.36 0.16 0.36 0.36s-0.16 0.36 -0.36 0.36 -0.36 -0.16 -0.36 -0.36 0.16 -0.36 0.36 -0.36zm0 0.112a0.068 0.068 0 1 0 0 0.135 0.068 0.068 0 0 0 0 -0.135zM0.389 0.42A0.03 0.03 0 0 0 0.39 0.48H0.42v0.18h-0.03c-0.017 0 -0.03 0.013 -0.03 0.03s0.013 0.03 0.03 0.03h0.18c0.017 0 0.03 -0.013 0.03 -0.03s-0.013 -0.03 -0.03 -0.03H0.54V0.42H0.389zm0 0" fill="#ffffff"/></svg>