<svg width="108" height="108" viewBox="0 0 108 108" fill="none" xmlns="http://www.w3.org/2000/svg">
<g clip-path="url(#clip0_38_1283)">
<path d="M108 33.33C107.6 35.49 107.37 37.71 106.77 39.81C104.892 46.5107 100.838 52.3964 95.2453 56.539C89.6526 60.6816 82.8399 62.8457 75.8811 62.69H73.1904C73.1904 64.07 73.1904 65.33 73.1904 66.58C73.1904 66.81 73.5004 67.0999 73.7405 67.2299C75.1984 67.9985 76.4084 69.1647 77.23 70.5931C78.0515 72.0216 78.4509 73.6537 78.3818 75.3C78.3818 83.1333 78.3818 90.97 78.3818 98.81C78.3818 104.32 74.6308 107.99 69.1392 107.99H38.7808C34.2996 107.99 31.0287 105.56 29.9083 101.36C29.6811 100.441 29.5736 99.4965 29.5882 98.55C29.5882 90.89 29.5882 83.23 29.5882 75.55C29.4858 73.8534 29.8735 72.1632 30.7053 70.6809C31.5372 69.1986 32.7779 67.9868 34.2796 67.19C34.4143 67.1027 34.5293 66.9883 34.6172 66.854C34.7051 66.7196 34.7638 66.5683 34.7897 66.4099C34.8497 65.2199 34.7897 64.03 34.7897 62.63C32.9192 62.63 31.1087 62.63 29.2881 62.63C29.0181 62.63 28.728 63.01 28.4979 63.26C24.4968 67.58 20.5291 71.9133 16.5946 76.26C15.9284 77.1108 15.0226 77.7426 13.9939 78.0741C12.9653 78.4056 11.8609 78.4216 10.823 78.12C9.64188 77.7938 8.60916 77.0709 7.89866 76.0728C7.18815 75.0748 6.84324 73.8625 6.92195 72.64C6.92195 65.92 6.92195 59.21 6.92195 52.5C6.95091 51.5265 6.63567 50.574 6.03169 49.81C1.17308 43.1902 -0.88527 34.9251 0.301364 26.8006C1.488 18.6761 5.82436 11.3445 12.3735 6.38998C17.0571 2.8049 22.67 0.636036 28.548 0.139984C28.788 0.139984 29.0281 0.0299805 29.2682 -0.0200195H78.6319C78.7929 0.045051 78.9606 0.0919908 79.132 0.119965C84.2983 0.49481 89.2819 2.18886 93.606 5.03998C100.011 9.11047 104.674 15.4152 106.69 22.73C107.3 24.87 107.55 27.11 107.96 29.3L108 33.33ZM73.0703 59.24H76.3112C81.2583 59.3001 86.1292 58.0179 90.4052 55.53C99.2576 50.22 104.059 42.39 104.409 32.03C104.721 25.1695 102.346 18.4577 97.7872 13.32C92.0356 6.63998 84.6436 3.47996 75.8411 3.48996C61.2571 3.48996 46.6697 3.48996 32.0789 3.48996C30.8469 3.4665 29.6146 3.51326 28.3879 3.62997C22.1458 4.27917 16.3108 7.03363 11.8433 11.44C7.06299 16.0046 4.12326 22.1635 3.58102 28.75C3.2286 32.3659 3.59319 36.0158 4.65395 39.4906C5.71471 42.9655 7.45079 46.1969 9.76273 49C10.1744 49.5413 10.4022 50.2 10.4129 50.88C10.4629 57.88 10.4129 64.9399 10.4129 71.9699C10.3994 72.4281 10.4262 72.8866 10.4929 73.34C10.5372 73.6358 10.6549 73.9159 10.8352 74.1545C11.0156 74.3932 11.253 74.5828 11.5256 74.7061C11.7981 74.8295 12.0973 74.8825 12.3957 74.8605C12.6941 74.8385 12.9822 74.742 13.2337 74.58C13.6357 74.2949 13.9988 73.9588 14.314 73.58C18.4952 69.0267 22.673 64.4633 26.8475 59.89C27.0779 59.5868 27.3841 59.3496 27.7352 59.2021C28.0864 59.0547 28.4702 59.0022 28.8481 59.05C30.5985 59.19 32.359 59.16 34.1095 59.24C34.7297 59.24 34.9197 59.05 35.0298 58.43C35.2402 57.046 35.5749 55.6838 36.03 54.36C38.6108 47.73 43.3921 43.53 50.374 42.19C57.536 40.83 63.6277 43.07 68.479 48.51C71.1128 51.5069 72.7213 55.2659 73.0703 59.24V59.24ZM53.985 104.5H68.9892C72.8703 104.5 74.9108 102.5 74.9108 98.59C74.9108 90.93 74.9108 83.2633 74.9108 75.59C74.9108 71.74 72.8302 69.59 68.9892 69.59H39.0209C35.1798 69.59 33.0892 71.69 33.0892 75.52V98.4C33.0892 102.4 35.0898 104.4 39.0909 104.4L53.985 104.5ZM69.7494 66.15C69.7582 63.5388 69.6347 60.9287 69.3793 58.33C67.7488 47.11 54.0951 41.5 44.9325 48.18C38.7208 52.71 37.7505 59.1 38.4607 66.18H41.7816C41.7816 64.41 41.7816 62.69 41.7816 60.98C41.7452 59.3481 42.0365 57.7255 42.6381 56.2082C43.2398 54.6908 44.1397 53.3094 45.2846 52.1457C46.4295 50.982 47.7961 50.0596 49.3037 49.4331C50.8114 48.8065 52.4293 48.4885 54.062 48.4979C55.6947 48.5072 57.3089 48.8437 58.8093 49.4875C60.3096 50.1314 61.6656 51.0694 62.7971 52.2461C63.9285 53.4229 64.8125 54.8145 65.3967 56.3387C65.981 57.8628 66.2536 59.4886 66.1984 61.12C66.1984 62.79 66.1984 64.47 66.1984 66.19L69.7494 66.15ZM62.4174 59.21C62.0216 57.1373 60.8705 55.2852 59.187 54.0123C57.5036 52.7395 55.4075 52.1364 53.3048 52.32C48.7136 52.58 45.6727 56.66 45.6227 59.21H62.4174ZM62.6374 62.76H45.3826V66.14H62.6374V62.76Z" fill="url(#paint0_linear_38_1283)"/>
<path d="M13.9139 31.36C13.9119 29.6386 14.4202 27.9553 15.3746 26.5225C16.329 25.0897 17.6866 23.9718 19.2761 23.3098C20.8656 22.6479 22.6156 22.4717 24.3052 22.8034C25.9948 23.1351 27.5482 23.9599 28.7692 25.1736C29.9903 26.3873 30.8242 27.9356 31.1657 29.6228C31.5072 31.31 31.3409 33.0605 30.6879 34.6533C30.0349 36.2461 28.9245 37.6097 27.4968 38.572C26.0691 39.5343 24.3882 40.0521 22.6663 40.06C20.36 40.0394 18.1533 39.1177 16.5178 37.492C14.8823 35.8663 13.9477 33.6655 13.9139 31.36V31.36ZM22.5763 36.5401C23.6049 36.5519 24.614 36.2585 25.4759 35.6969C26.3377 35.1354 27.0137 34.331 27.4182 33.3855C27.8228 32.4399 27.9379 31.3957 27.7488 30.3848C27.5598 29.3738 27.0751 28.4417 26.3561 27.7061C25.6372 26.9705 24.7162 26.4646 23.7096 26.2524C22.703 26.0401 21.6561 26.131 20.7012 26.5135C19.7463 26.8961 18.9263 27.5531 18.3449 28.4015C17.7635 29.2499 17.4468 30.2517 17.4349 31.28C17.423 31.964 17.5469 32.6435 17.7996 33.2792C18.0522 33.9149 18.4286 34.4942 18.9068 34.9834C19.385 35.4727 19.9556 35.8622 20.5855 36.1294C21.2154 36.3966 21.8921 36.5362 22.5763 36.5401V36.5401Z" fill="url(#paint1_linear_38_1283)"/>
<path d="M85.1937 40.06C83.4712 40.0362 81.7944 39.5024 80.3753 38.526C78.9562 37.5497 77.8585 36.1748 77.2208 34.5749C76.5832 32.975 76.4342 31.2221 76.7929 29.5377C77.1515 27.8532 78.0015 26.3128 79.2356 25.1113C80.4697 23.9097 82.0324 23.1008 83.7262 22.7868C85.42 22.4729 87.1688 22.668 88.7518 23.3474C90.3347 24.0269 91.6806 25.1603 92.6194 26.6042C93.5582 28.0482 94.0478 29.738 94.0262 31.46C93.9763 33.7651 93.0226 35.9584 91.3704 37.5671C89.7182 39.1758 87.5 40.0711 85.1937 40.06ZM90.5152 31.3501C90.5152 30.3224 90.2106 29.3179 89.6399 28.4632C89.0693 27.6085 88.2581 26.942 87.3088 26.5478C86.3596 26.1536 85.3147 26.0495 84.3063 26.2486C83.2979 26.4476 82.3711 26.9409 81.6428 27.6661C80.9146 28.3913 80.4176 29.316 80.2147 30.3234C80.0117 31.3308 80.1119 32.3757 80.5025 33.3262C80.8931 34.2767 81.5567 35.0902 82.4094 35.664C83.2622 36.2378 84.2658 36.5461 85.2937 36.55C85.9813 36.558 86.6637 36.4293 87.3012 36.1714C87.9386 35.9135 88.5185 35.5316 89.0071 35.0478C89.4957 34.564 89.8832 33.988 90.1472 33.3532C90.4113 32.7184 90.5465 32.0375 90.5452 31.3501H90.5152Z" fill="url(#paint2_linear_38_1283)"/>
<path d="M62.6674 31.4C62.6536 33.1137 62.1326 34.785 61.1702 36.2032C60.2078 37.6213 58.8471 38.723 57.2594 39.3692C55.6717 40.0155 53.9282 40.1774 52.2486 39.8346C50.569 39.4918 49.0285 38.6597 47.8213 37.443C46.614 36.2264 45.794 34.6796 45.4646 32.9978C45.1353 31.316 45.3112 29.5744 45.9704 27.9924C46.6296 26.4104 47.7424 25.0589 49.1687 24.1082C50.5949 23.1574 52.2708 22.6501 53.985 22.65C56.2949 22.6659 58.5047 23.5951 60.1316 25.2346C61.7584 26.8741 62.6701 29.0907 62.6674 31.4V31.4ZM53.955 36.54C54.9816 36.54 55.9852 36.2362 56.8395 35.667C57.6937 35.0978 58.3604 34.2886 58.7555 33.3414C59.1506 32.3941 59.2565 31.3511 59.0599 30.3438C58.8632 29.3365 58.3727 28.4099 57.6503 27.6807C56.9278 26.9515 56.0057 26.4524 55 26.2461C53.9944 26.0399 52.9502 26.1357 51.9989 26.5217C51.0476 26.9076 50.2319 27.5663 49.6543 28.4148C49.0768 29.2634 48.7634 30.2638 48.7536 31.29C48.7483 31.9767 48.8788 32.6577 49.1378 33.2938C49.3967 33.9299 49.7788 34.5085 50.2622 34.9964C50.7456 35.4843 51.3207 35.8719 51.9545 36.1368C52.5882 36.4017 53.2681 36.5387 53.955 36.54V36.54Z" fill="url(#paint3_linear_38_1283)"/>
<path d="M59.2364 101H48.7435V99.8499C48.7435 96.4699 48.7435 93.0999 48.7435 89.7299C48.7274 89.1954 48.5136 88.6859 48.1433 88.2999C46.8471 87.1172 45.9389 85.5702 45.5378 83.8621C45.1368 82.154 45.2617 80.3647 45.8962 78.7288C46.5306 77.093 47.645 75.6872 49.093 74.6959C50.541 73.7045 52.255 73.1741 54.01 73.1741C55.765 73.1741 57.4789 73.7045 58.9269 74.6959C60.3749 75.6872 61.4893 77.093 62.1238 78.7288C62.7582 80.3647 62.8832 82.154 62.4821 83.8621C62.0811 85.5702 61.1729 87.1172 59.8766 88.2999C59.5305 88.6567 59.3215 89.1242 59.2864 89.6199C59.2864 92.9899 59.2864 96.3699 59.2864 99.7399L59.2364 101ZM55.6554 97.4799C55.6554 97.0899 55.6554 96.75 55.6554 96.4C55.6554 94.01 55.7355 91.6199 55.6554 89.2399C55.5492 88.5682 55.6445 87.88 55.9294 87.2623C56.2143 86.6447 56.6759 86.1254 57.2559 85.77C57.8034 85.3424 58.2558 84.8056 58.5842 84.1936C58.9127 83.5816 59.11 82.908 59.1637 82.2156C59.2173 81.5232 59.1261 80.8272 58.8958 80.1719C58.6655 79.5167 58.3012 78.9166 57.826 78.4099C57.3568 77.8859 56.7861 77.4624 56.1485 77.1652C55.5109 76.868 54.8195 76.7032 54.1164 76.6807C53.4132 76.6583 52.7128 76.7787 52.0575 77.0347C51.4022 77.2906 50.8056 77.6768 50.3039 78.1699C48.2234 80.2199 48.0833 83.9199 50.434 85.5399C52.1945 86.7399 52.3145 88.1099 52.2545 89.8599C52.1845 92.0399 52.2545 94.22 52.2545 96.4C52.2545 96.74 52.2545 97.0799 52.3045 97.4799H55.6554Z" fill="url(#paint4_linear_38_1283)"/>
</g>
<defs>
<linearGradient id="paint0_linear_38_1283" x1="-0.0268555" y1="-0.0200195" x2="129.236" y2="40.8858" gradientUnits="userSpaceOnUse">
<stop stop-color="#252FF2"/>
<stop offset="1" stop-color="#0B9CFF"/>
</linearGradient>
<linearGradient id="paint1_linear_38_1283" x1="13.9139" y1="22.6401" x2="34.7636" y2="29.239" gradientUnits="userSpaceOnUse">
<stop stop-color="#252FF2"/>
<stop offset="1" stop-color="#0B9CFF"/>
</linearGradient>
<linearGradient id="paint2_linear_38_1283" x1="76.602" y1="22.6409" x2="97.4515" y2="29.2399" gradientUnits="userSpaceOnUse">
<stop stop-color="#252FF2"/>
<stop offset="1" stop-color="#0B9CFF"/>
</linearGradient>
<linearGradient id="paint3_linear_38_1283" x1="45.3029" y1="22.65" x2="66.0805" y2="29.2259" gradientUnits="userSpaceOnUse">
<stop stop-color="#252FF2"/>
<stop offset="1" stop-color="#0B9CFF"/>
</linearGradient>
<linearGradient id="paint4_linear_38_1283" x1="45.3076" y1="73.1741" x2="67.3558" y2="77.5376" gradientUnits="userSpaceOnUse">
<stop stop-color="#252FF2"/>
<stop offset="1" stop-color="#0B9CFF"/>
</linearGradient>
<clipPath id="clip0_38_1283">
<rect width="108" height="108" fill="white"/>
</clipPath>
</defs>
</svg>
