<svg width="98" height="108" viewBox="0 0 98 108" fill="none" xmlns="http://www.w3.org/2000/svg">
<g clip-path="url(#clip0_37_1271)">
<path d="M87.1084 44.9999H90.6058C91.5818 44.9836 92.5511 45.1626 93.4558 45.5262C94.3604 45.8898 95.1819 46.4305 95.871 47.1161C96.5601 47.8016 97.1028 48.6179 97.4665 49.5162C97.8302 50.4144 98.0075 51.3762 97.9879 52.344C97.9879 58.008 97.9879 63.66 97.9879 69.324C97.9879 76.068 94.0306 80.388 87.0963 81.036C87.0963 81.444 87.0963 81.876 87.0963 82.296C87.1445 85.5871 86.9787 88.878 86.6001 92.148C85.7588 96.5529 83.4052 100.533 79.9393 103.412C76.4735 106.291 72.1092 107.891 67.5883 107.94C51.5656 108.012 35.5428 108.012 19.5201 107.94C14.3759 107.859 9.46532 105.797 5.8285 102.188C2.19167 98.5795 0.114233 93.709 0.0362539 88.608C-0.0363566 68.664 0.0362539 48.732 0.0362539 28.788C0.0313922 27.6038 0.263856 26.4305 0.72008 25.3362C1.1763 24.2418 1.84722 23.2483 2.69389 22.4132C3.54056 21.5781 4.54612 20.9181 5.65215 20.4716C6.75818 20.025 7.94265 19.8008 9.1368 19.8119C10.4559 19.8119 11.7871 19.7519 13.1062 19.8119C13.917 19.8119 14.2558 19.572 14.5463 18.816C18.1768 9.47996 24.9296 3.39593 34.7078 0.899932C41.628 -0.854275 48.9583 -0.000646973 55.2804 3.29561C61.6024 6.59187 66.4666 12.0964 68.9316 18.744C68.9937 19.0799 69.1848 19.3788 69.4646 19.578C69.7445 19.7772 70.0913 19.861 70.4322 19.8119C72.6393 19.7609 74.8339 20.1549 76.8828 20.9701C78.9317 21.7852 80.7924 23.0047 82.3518 24.5543C83.9112 26.104 85.1368 27.9515 85.9544 29.985C86.7721 32.0185 87.1647 34.1955 87.1084 36.3839V44.9999ZM83.6231 55.7999C83.5387 54.1041 83.3649 52.4138 83.1027 50.736C82.3636 47.0617 80.353 43.7591 77.4184 41.3992C74.4838 39.0392 70.8097 37.7703 67.0316 37.8119H12.2711C9.34252 37.8119 6.35338 38.1599 3.7152 36.1199V61.1399H19.98C19.98 59.2319 19.98 57.396 19.98 55.56C19.98 50.136 19.6532 50.3759 25.1111 50.4119C28.8868 50.4119 32.6626 50.4119 36.4625 50.4119L36.7772 49.6679C37.2207 48.4856 37.9698 47.4396 38.9493 46.6347C39.9288 45.8297 41.1044 45.2941 42.3583 45.0814C43.6123 44.8687 44.9005 44.9864 46.0942 45.4228C47.2878 45.8591 48.3449 46.5987 49.1596 47.5676C49.9742 48.5365 50.5179 49.7006 50.7361 50.9434C50.9543 52.1862 50.8393 53.464 50.4028 54.6489C49.9663 55.8337 49.2235 56.8841 48.2488 57.6947C47.2741 58.5054 46.1017 59.0479 44.849 59.2679C43.2006 59.5771 41.495 59.3018 40.0305 58.4902C38.566 57.6786 37.4358 56.3822 36.8377 54.8279C36.7541 54.5555 36.5755 54.3214 36.3339 54.1675C36.0922 54.0136 35.8032 53.95 35.5186 53.988C31.8881 53.988 28.2576 53.988 24.627 53.988C24.3003 53.988 23.9735 53.9879 23.5984 54.0479V62.3399C23.5984 64.1879 23.0054 64.7399 21.178 64.7399H3.7152V68.3399H5.0827C15.1756 68.3399 25.2604 68.3399 35.3371 68.3399C35.6935 68.403 36.0608 68.3305 36.3659 68.137C36.6709 67.9436 36.8912 67.6433 36.9829 67.296C37.6105 65.7728 38.7577 64.5166 40.2242 63.7468C41.6907 62.9769 43.3832 62.7423 45.0064 63.0839C46.2379 63.3164 47.3878 63.861 48.3441 64.6649C49.3004 65.4688 50.0305 66.5045 50.4633 67.6711C50.8962 68.8378 51.017 70.0957 50.8141 71.3224C50.6112 72.5492 50.0913 73.7029 49.3053 74.6714C48.5192 75.6398 47.4938 76.3899 46.3286 76.8487C45.1634 77.3075 43.8983 77.4593 42.6564 77.2894C41.4145 77.1195 40.2381 76.6337 39.2418 75.8792C38.2454 75.1247 37.4631 74.1272 36.9708 72.9839C36.8135 72.6479 36.6683 72.2999 36.5473 71.9999H3.73942V75.5279H21.1659C23.0175 75.5279 23.5863 76.1039 23.5863 77.9279V84.468C23.6898 84.5211 23.7995 84.5614 23.913 84.5879C27.6525 84.5879 31.3919 84.5879 35.1313 84.5879C35.5214 84.6591 35.9241 84.5828 36.2602 84.374C36.5962 84.1652 36.8411 83.839 36.9466 83.4599C37.3408 82.5538 37.9208 81.739 38.6497 81.0671C39.3786 80.3952 40.2404 79.881 41.1805 79.5571C42.1205 79.2333 43.1182 79.1068 44.1102 79.1858C45.1022 79.2648 46.0668 79.5475 46.9427 80.0159C47.8278 80.4844 48.6054 81.1298 49.2264 81.9112C49.8474 82.6926 50.2983 83.5932 50.5508 84.5561C50.8032 85.519 50.8516 86.5234 50.693 87.5058C50.5344 88.4882 50.1722 89.4273 49.6293 90.264C49.1 91.1006 48.3995 91.8178 47.5731 92.3691C46.7467 92.9204 45.8128 93.2935 44.8318 93.4643C43.8508 93.6351 42.8445 93.5997 41.8781 93.3606C40.9117 93.1214 40.0068 92.6838 39.2217 92.076C38.0152 90.8795 36.9289 89.5693 35.9785 88.164H22.5213C20.5245 88.164 19.98 87.6239 19.98 85.6319V79.248H3.6547C3.6547 82.332 3.6547 85.32 3.6547 88.32C3.68615 92.5488 5.39008 96.5964 8.40005 99.5922C11.41 102.588 15.4855 104.293 19.75 104.34C35.6275 104.396 51.501 104.396 67.3704 104.34C70.7408 104.306 74.0171 103.233 76.745 101.27C79.4728 99.307 81.5171 96.5509 82.5944 93.3839C84.0103 89.3399 83.2842 85.176 83.502 80.976H82.1104C78.1773 80.976 74.2442 81.096 70.3232 80.976C68.0234 80.8892 65.7907 80.1835 63.8644 78.9345C61.9381 77.6855 60.391 75.9403 59.3887 73.8859C58.3863 71.8315 57.9667 69.5454 58.1746 67.2726C58.3826 64.9998 59.2103 62.8259 60.5692 60.9839C61.7145 59.3631 63.2438 58.0459 65.0226 57.1483C66.8015 56.2507 68.7755 55.8 70.7711 55.836C74.9583 55.752 79.1576 55.788 83.6231 55.788V55.7999ZM48.9516 28.836C49.6316 29.5484 50.1507 30.3963 50.4742 31.3233C50.7976 32.2504 50.918 33.2351 50.8273 34.2119C52.34 34.2119 53.7317 34.2119 55.1234 34.2119C56.5151 34.2119 57.7375 34.1039 59.0445 34.0559C59.4229 32.5777 59.6898 31.0735 59.8431 29.5559C59.9677 26.9641 59.5257 24.3762 58.5474 21.9696C57.569 19.563 56.0776 17.3946 54.1752 15.6129C52.2727 13.8313 50.0044 12.4786 47.5255 11.6475C45.0466 10.8163 42.4158 10.5265 39.8133 10.7977C37.2109 11.069 34.6984 11.895 32.448 13.2191C30.1975 14.5432 28.2624 16.3341 26.7752 18.469C25.288 20.604 24.2838 23.0325 23.8316 25.5883C23.3793 28.144 23.4897 30.7665 24.1551 33.2759C24.3608 34.0559 24.7117 34.236 25.4862 34.236C28.7658 34.236 32.0575 34.236 35.3371 34.236H36.2326V21.5999C35.6396 21.5999 35.1193 21.5999 34.5989 21.5999C34.1175 21.5999 33.6557 21.4103 33.3153 21.0727C32.9749 20.7352 32.7836 20.2773 32.7836 19.7999C32.7836 19.3225 32.9749 18.8647 33.3153 18.5272C33.6557 18.1896 34.1175 17.9999 34.5989 17.9999C35.3855 17.9999 36.1721 17.9999 36.9345 17.9999C37.1039 15.9599 37.5517 15.204 38.6651 15.144C39.0523 15.144 39.6453 15.216 39.8026 15.468C40.2594 16.2404 40.6637 17.0422 41.0128 17.868H42.8402C42.8402 17.424 42.7555 16.98 42.9249 16.668C43.1785 16.075 43.5985 15.5669 44.1351 15.2039C45.3453 14.6399 46.5554 15.5759 46.5554 17.0399C46.5036 17.3964 46.5777 17.7596 46.7652 18.068C46.9527 18.3764 47.242 18.611 47.5841 18.732C48.3868 19.1207 49.0883 19.6878 49.6341 20.3892C50.1798 21.0906 50.5549 21.9073 50.7305 22.7759C50.9784 23.8508 50.9452 24.9707 50.6339 26.0293C50.3225 27.0878 49.7434 28.0498 48.9516 28.824V28.836ZM94.321 58.908C92.3605 59.076 90.4364 59.3639 88.5122 59.3759C82.546 59.4479 76.5678 59.3759 70.6016 59.3759C68.1944 59.3759 65.8858 60.3242 64.1836 62.012C62.4815 63.6998 61.5253 65.989 61.5253 68.3759C61.5253 70.7629 62.4815 73.0521 64.1836 74.7399C65.8858 76.4278 68.1944 77.376 70.6016 77.376C76.1563 77.448 81.711 77.376 87.2657 77.376C89.0297 77.3974 90.7366 76.756 92.0431 75.5806C93.3497 74.4052 94.1592 72.783 94.3089 71.0399C94.5025 66.8999 94.321 62.736 94.321 58.896V58.908ZM62.9412 34.2119C63.8488 34.2119 64.7927 34.2119 65.7125 34.2119C66.3781 34.2119 66.6201 34.032 66.729 33.36C67.2711 30.6337 67.312 27.8327 66.85 25.0919C64.9016 14.5919 58.8387 7.42795 48.4433 4.59595C38.0479 1.76395 28.9837 4.78795 22.0373 12.996C19.6646 15.7648 17.9604 19.034 17.0544 22.5546C16.1485 26.0752 16.0646 29.7544 16.8093 33.3119C16.8552 33.4973 16.9451 33.6691 17.0713 33.8131C17.1976 33.9571 17.3567 34.0691 17.5354 34.1399C18.5399 34.2359 19.5564 34.1399 20.5609 34.1399C18.7335 24.2519 21.5169 16.14 30.0486 10.632C37.6243 5.75995 45.7809 5.72395 53.3445 10.632C61.9609 16.068 64.7564 24.2519 62.9412 34.1999V34.2119ZM83.5142 42.6119C83.5142 40.0799 83.5142 37.8719 83.5142 35.6639C83.4458 33.0409 82.5446 30.5061 80.9388 28.4205C79.3331 26.3348 77.1047 24.8047 74.5709 24.0479C73.2646 23.7303 71.9386 23.4978 70.6016 23.352V34.524C75.778 35.4507 80.3897 38.333 83.4658 42.5639L83.5142 42.6119ZM13.1425 23.472C11.6298 23.472 10.1533 23.4 8.68904 23.472C7.42853 23.5762 6.2439 24.1122 5.33853 24.988C4.43315 25.8639 3.86348 27.025 3.72731 28.272C3.54052 29.4946 3.80487 30.7431 4.47182 31.788C5.13876 32.8329 6.1635 33.6041 7.35784 33.96C9.29226 34.2502 11.2465 34.3907 13.203 34.38C13.0577 32.364 12.8399 30.612 12.8399 28.86C12.8399 27.108 12.9609 25.284 13.0941 23.424L13.1425 23.472ZM87.2294 48.672V55.872C88.5606 55.872 89.795 55.872 91.0415 55.872C92.0044 55.872 92.9277 55.4927 93.6086 54.8175C94.2895 54.1424 94.672 53.2267 94.672 52.272C94.672 51.3172 94.2895 50.4015 93.6086 49.7264C92.9277 49.0512 92.0044 48.672 91.0415 48.672C89.795 48.552 88.5122 48.5999 87.181 48.5999L87.2294 48.672ZM43.6631 55.872C44.3842 55.8718 45.089 55.6587 45.6875 55.2599C46.286 54.861 46.7511 54.2945 47.0237 53.6325C47.2962 52.9705 47.3637 52.243 47.2176 51.5427C47.0715 50.8425 46.7185 50.2013 46.2035 49.7008C45.6884 49.2003 45.0348 48.8632 44.3258 48.7326C43.6168 48.6019 42.8847 48.6835 42.2227 48.9671C41.5607 49.2506 40.9989 49.7233 40.6088 50.3247C40.2188 50.9261 40.0181 51.6291 40.0326 52.344C40.0726 53.2612 40.4645 54.1285 41.1281 54.7687C41.7917 55.4089 42.6769 55.7735 43.6026 55.788L43.6631 55.872ZM47.2936 70.2719C47.2936 69.5599 47.0807 68.8639 46.6817 68.2719C46.2828 67.6799 45.7159 67.2185 45.0525 66.946C44.3891 66.6735 43.6591 66.6022 42.9548 66.7411C42.2506 66.88 41.6036 67.2229 41.0959 67.7264C40.5882 68.2298 40.2424 68.8713 40.1023 69.5696C39.9623 70.2679 40.0341 70.9918 40.3089 71.6496C40.5837 72.3074 41.0491 72.8697 41.6461 73.2653C42.2432 73.6608 42.945 73.8719 43.6631 73.8719C44.6197 73.8437 45.5263 73.4421 46.1857 72.7544C46.8452 72.0667 47.2042 71.1487 47.1847 70.1999L47.2936 70.2719ZM47.2936 86.496C47.2936 85.7839 47.0807 85.0879 46.6817 84.4959C46.2828 83.9039 45.7159 83.4424 45.0525 83.17C44.3891 82.8975 43.6591 82.8262 42.9548 82.9651C42.2506 83.104 41.6036 83.4469 41.0959 83.9503C40.5882 84.4538 40.2424 85.0953 40.1023 85.7936C39.9623 86.492 40.0341 87.2158 40.3089 87.8736C40.5837 88.5315 41.0491 89.0936 41.6461 89.4892C42.2432 89.8848 42.945 90.096 43.6631 90.096C44.6197 90.0677 45.5263 89.6661 46.1857 88.9784C46.8452 88.2908 47.2042 87.3727 47.1847 86.424L47.2936 86.496ZM40.0326 26.952C41.7873 26.952 43.5421 27.084 45.2727 26.952C45.8601 26.8469 46.3877 26.5302 46.7541 26.0629C47.1204 25.5955 47.2996 25.0104 47.2573 24.4199C47.2875 23.814 47.0941 23.2178 46.7133 22.743C46.3324 22.2681 45.7902 21.9471 45.1879 21.8399C43.4816 21.6719 41.7631 21.8399 40.0326 21.8399V26.952ZM40.0326 34.272C41.9689 34.272 43.8083 34.272 45.6478 34.272C46.1561 34.272 47.0879 34.1279 47.1121 33.9479C47.2335 33.2976 47.1313 32.6257 46.8216 32.0399C46.4586 31.4414 45.8712 31.0099 45.1879 30.8399C43.4937 30.6719 41.7631 30.78 40.0326 30.78V34.272Z" fill="url(#paint0_linear_37_1271)"/>
<path d="M64.3814 68.34C64.391 67.0935 64.7733 65.8779 65.4799 64.847C66.1866 63.816 67.1857 63.0161 68.351 62.5484C69.5163 62.0808 70.7952 61.9664 72.0261 62.2198C73.2569 62.4732 74.3843 63.0829 75.2656 63.9719C76.1468 64.8608 76.7422 65.989 76.9766 67.2137C77.211 68.4383 77.0737 69.7044 76.5822 70.8517C76.0906 71.9989 75.2669 72.9759 74.2153 73.6588C73.1636 74.3416 71.9313 74.6998 70.6743 74.688C68.9924 74.669 67.3863 73.9906 66.2072 72.8012C65.0281 71.6117 64.3717 70.0079 64.3814 68.34V68.34ZM73.4456 68.34C73.4432 67.8065 73.2815 67.2857 72.9808 66.8432C72.6802 66.4008 72.2541 66.0566 71.7563 65.8541C71.2586 65.6516 70.7114 65.5998 70.1841 65.7054C69.6567 65.8109 69.1727 66.069 68.7931 66.447C68.4135 66.8251 68.1553 67.3062 68.0513 67.8296C67.9472 68.353 68.0018 68.8953 68.2082 69.388C68.4147 69.8807 68.7637 70.3016 69.2112 70.5977C69.6587 70.8939 70.1846 71.052 70.7227 71.052C71.0828 71.0567 71.4405 70.9909 71.7749 70.8583C72.1094 70.7256 72.414 70.5287 72.6716 70.2789C72.9291 70.0292 73.1342 69.7314 73.2754 69.4028C73.4165 69.0742 73.4909 68.7211 73.494 68.364L73.4456 68.34Z" fill="url(#paint1_linear_37_1271)"/>
</g>
<defs>
<linearGradient id="paint0_linear_37_1271" x1="0.00398254" y1="0.00854492" x2="119.17" y2="34.2217" gradientUnits="userSpaceOnUse">
<stop stop-color="#252FF2"/>
<stop offset="1" stop-color="#0B9CFF"/>
</linearGradient>
<linearGradient id="paint1_linear_37_1271" x1="64.3813" y1="62.0883" x2="79.5628" y2="66.9325" gradientUnits="userSpaceOnUse">
<stop stop-color="#252FF2"/>
<stop offset="1" stop-color="#0B9CFF"/>
</linearGradient>
<clipPath id="clip0_37_1271">
<rect width="98" height="108" fill="white"/>
</clipPath>
</defs>
</svg>
