<svg width="22px" height="22px" viewBox="0 0 1.32 1.32" fill="none" xmlns="http://www.w3.org/2000/svg"><path width="48" height="48" fill="white" fill-opacity="0.01" d="M0 0H1.32V1.32H0V0z"/><path d="M0.66 1.21a0.548 0.548 0 0 0 0.389 -0.161A0.548 0.548 0 0 0 1.21 0.66a0.548 0.548 0 0 0 -0.161 -0.389A0.548 0.548 0 0 0 0.66 0.11 0.548 0.548 0 0 0 0.271 0.271 0.548 0.548 0 0 0 0.11 0.66a0.548 0.548 0 0 0 0.161 0.389A0.548 0.548 0 0 0 0.66 1.21Z" fill="#2F88FF" stroke="#000000" stroke-width="0.11" stroke-linejoin="round"/><path fill-rule="evenodd" clip-rule="evenodd" d="M0.66 0.302a0.069 0.069 0 1 1 0 0.138 0.069 0.069 0 0 1 0 -0.138Z" fill="white"/><path d="M0.674 0.935V0.55h-0.055" stroke="white" stroke-width="0.11" stroke-linecap="round" stroke-linejoin="round"/><path d="M0.578 0.935h0.193" stroke="white" stroke-width="0.11" stroke-linecap="round" stroke-linejoin="round"/></svg>