<svg width="88" height="108" viewBox="0 0 88 108" fill="none" xmlns="http://www.w3.org/2000/svg">
<g clip-path="url(#clip0_39_1289)">
<path d="M1.79112e-05 49.46V6.16C1.79112e-05 2.11 2.14957 0.0100098 6.28572 0.0100098C26.5589 0.0100098 46.8355 0.0100098 67.1155 0.0100098C71.1905 0.0100098 73.33 2.13002 73.33 6.11002C73.33 9.41002 73.3911 12.71 73.33 16.01C73.2805 16.3584 73.1591 16.6932 72.9735 16.9941C72.7878 17.295 72.5417 17.5556 72.2501 17.76C71.9651 17.8745 71.6554 17.9171 71.3493 17.8839C71.0432 17.8507 70.7505 17.7428 70.4978 17.57C70.0315 17.1053 69.7652 16.4822 69.7541 15.83C69.6828 12.54 69.7541 9.24 69.7541 5.94C69.7541 4.23 69.1327 3.61002 67.4313 3.61002H5.94954C4.31953 3.61002 3.67771 4.24 3.67771 5.87V93.14C3.67771 94.79 4.32973 95.39 6.08198 95.39H46.6997C47.0794 95.3601 47.461 95.3601 47.8407 95.39C48.2724 95.4539 48.6664 95.6676 48.9511 95.9924C49.2359 96.3172 49.3924 96.7315 49.3924 97.16C49.3924 97.5885 49.2359 98.0028 48.9511 98.3276C48.6664 98.6524 48.2724 98.8661 47.8407 98.93C47.502 98.9644 47.1606 98.9644 46.822 98.93H6.07178C2.19033 98.93 -0.040741 96.75 -0.040741 92.93L1.79112e-05 49.46Z" fill="url(#paint0_linear_39_1289)"/>
<path d="M58.7108 75.59V86.41C59.2609 86.41 59.8111 86.41 60.3612 86.41C60.6211 86.3876 60.883 86.421 61.1285 86.5076C61.3741 86.5943 61.5976 86.7321 61.7836 86.9118C61.9696 87.0916 62.1136 87.3087 62.2057 87.5484C62.2979 87.7881 62.3359 88.0445 62.3172 88.3C62.3172 94.22 62.3172 100.143 62.3172 106.07C62.3424 106.336 62.3063 106.604 62.2117 106.854C62.1171 107.104 61.9664 107.33 61.7708 107.515C61.5752 107.701 61.3396 107.841 61.0815 107.924C60.8234 108.008 60.5494 108.034 60.2797 108C57.9909 108 55.6987 108 53.4031 108C53.1276 108.032 52.8484 108.003 52.5862 107.913C52.3241 107.824 52.086 107.678 51.8899 107.485C51.6937 107.293 51.5446 107.059 51.4538 106.802C51.363 106.545 51.3328 106.27 51.3656 106C51.3656 100.153 51.3656 94.3033 51.3656 88.45C51.3368 88.1804 51.3697 87.9079 51.4619 87.6524C51.5541 87.3969 51.7033 87.1648 51.8985 86.9731C52.0938 86.7815 52.3302 86.635 52.5905 86.5445C52.8508 86.454 53.1285 86.4217 53.4031 86.45C53.9023 86.45 54.4219 86.45 54.9516 86.45V75.62C53.5661 75.4 52.1399 75.21 50.734 74.93C44.1375 73.5385 38.2318 69.9562 34.013 64.7876C29.7943 59.619 27.5207 53.1803 27.5757 46.5576C27.6308 39.9349 30.0111 33.5336 34.3153 28.4332C38.6194 23.3329 44.5839 19.8457 51.2026 18.56C57.5827 17.2627 64.223 18.1485 70.019 21.07C71.4249 21.75 71.8833 22.67 71.3536 23.72C70.8238 24.77 69.8051 24.96 68.4094 24.3C58.2829 19.49 46.5571 21.22 38.8655 28.91C31.6629 36.15 29.3809 44.85 32.5696 54.49C35.7583 64.13 42.7571 69.88 52.9447 71.57C56.3572 72.1094 59.8458 71.9613 63.1981 71.1348C66.5504 70.3082 69.6962 68.8205 72.444 66.7623C75.1917 64.7041 77.4839 62.1185 79.181 59.1628C80.8781 56.2071 81.9446 52.9432 82.3154 49.57C82.7122 46.0219 82.3478 42.4316 81.2456 39.03C81.0726 38.6172 80.9794 38.1764 80.9706 37.73C80.9774 37.3081 81.1457 36.9041 81.442 36.5984C81.7384 36.2927 82.1411 36.1076 82.5701 36.08C82.7891 36.0383 83.0144 36.0401 83.2327 36.0852C83.451 36.1304 83.6579 36.218 83.8412 36.3429C84.0244 36.4677 84.1803 36.6274 84.2997 36.8124C84.4191 36.9974 84.4995 37.204 84.5363 37.42C85.2909 40.1624 85.8089 42.9623 86.0847 45.79C86.3585 52.6552 84.1116 59.3885 79.7531 64.7643C75.3947 70.1401 69.2144 73.8008 62.3376 75.08C61.1456 75.31 59.9435 75.41 58.7108 75.59ZM58.5886 104.34V90.09H55.0637V104.34H58.5886Z" fill="url(#paint1_linear_39_1289)"/>
<path d="M81.3373 21.6H77.3235C75.9787 21.6 75.1535 20.9 75.1535 19.81C75.1535 18.72 75.9685 18.01 77.3235 18.01C80.2167 18.01 83.1167 18.01 86.0236 18.01C86.2907 17.9748 86.5625 18.0009 86.8176 18.0862C87.0727 18.1716 87.3042 18.3139 87.4938 18.5019C87.6834 18.6899 87.8259 18.9186 87.9102 19.1698C87.9945 19.4211 88.0183 19.6882 87.9796 19.95C87.9796 22.8 87.9796 25.64 87.9796 28.49C87.9796 29.8 87.2359 30.61 86.1255 30.59C85.0151 30.57 84.3427 29.77 84.3223 28.44C84.3019 27.11 84.3223 25.77 84.3223 24.22C83.9046 24.6 83.6499 24.81 83.4258 25.04C76.3081 32.04 69.1768 39.04 62.0319 46.04C61.8545 46.2896 61.6183 46.4934 61.3434 46.6342C61.0684 46.775 60.763 46.8485 60.4529 46.8485C60.1428 46.8485 59.8373 46.775 59.5624 46.6342C59.2875 46.4934 59.0513 46.2896 58.8738 46.04C57.0503 44.23 55.2165 42.43 53.3827 40.62C53.2853 40.556 53.1831 40.4992 53.0771 40.45C52.8122 40.7 52.5066 40.97 52.2214 41.25L40.3936 52.86C40.1633 53.1076 39.9147 53.3382 39.6499 53.55C39.3049 53.8597 38.8513 54.0266 38.3839 54.0159C37.9165 54.0052 37.4714 53.8176 37.1414 53.4925C36.8115 53.1673 36.6222 52.7297 36.6132 52.2708C36.6041 51.812 36.776 51.3674 37.0928 51.03C37.3374 50.74 37.6226 50.49 37.8976 50.22C42.4549 45.74 47.0121 41.2566 51.5693 36.77C52.6492 35.71 53.6069 35.72 54.7275 36.77L60.3 42.21L81.3373 21.6Z" fill="url(#paint2_linear_39_1289)"/>
<path d="M11.0433 23.81C11.0433 22.52 11.6749 21.74 12.6529 21.62C12.9003 21.5967 13.15 21.6222 13.3872 21.695C13.6244 21.7678 13.8444 21.8864 14.0342 22.0438C14.2241 22.2013 14.3799 22.3944 14.4926 22.6118C14.6053 22.8293 14.6725 23.0666 14.6904 23.31C14.9451 24.76 15.9435 25.51 17.1049 25.09C17.5184 24.9812 17.8745 24.7226 18.1013 24.3663C18.3282 24.01 18.409 23.5825 18.3274 23.17C18.2759 22.7164 18.048 22.2998 17.6911 22.0073C17.3342 21.7147 16.876 21.5688 16.4121 21.6C15.2115 21.5646 14.0555 21.146 13.1192 20.4076C12.1829 19.6691 11.5174 18.6511 11.2237 17.508C10.9299 16.3648 11.0239 15.1588 11.4914 14.0728C11.9589 12.9868 12.7744 12.08 13.8143 11.49C14.2187 11.2259 14.5342 10.8501 14.721 10.41C14.8221 10.0144 15.0549 9.66326 15.3825 9.41238C15.7101 9.16151 16.1138 9.02527 16.5293 9.02527C16.9448 9.02527 17.3484 9.16151 17.676 9.41238C18.0036 9.66326 18.2365 10.0144 18.3376 10.41C18.5204 10.8521 18.8323 11.2313 19.2341 11.5C20.0317 11.95 20.7027 12.5878 21.1865 13.356C21.6702 14.1241 21.9516 14.9984 22.0051 15.9C22.0492 16.1424 22.0422 16.3911 21.9845 16.6308C21.9267 16.8705 21.8195 17.0959 21.6694 17.2933C21.5194 17.4906 21.3296 17.6557 21.112 17.7782C20.8943 17.9007 20.6534 17.978 20.4041 18.0054C20.1548 18.0329 19.9024 18.0097 19.6625 17.9376C19.4226 17.8654 19.2004 17.7457 19.0096 17.5858C18.8187 17.426 18.6633 17.2294 18.553 17.0082C18.4426 16.787 18.3797 16.546 18.3681 16.3C18.0931 14.75 16.9622 14.01 15.7397 14.61C15.3589 14.7598 15.0461 15.0397 14.8589 15.398C14.6717 15.7563 14.6227 16.169 14.721 16.56C14.8062 16.9877 15.0459 17.3709 15.3958 17.6391C15.7458 17.9073 16.1826 18.0425 16.6261 18.02C17.7979 18.0463 18.9305 18.44 19.858 19.1435C20.7855 19.8471 21.4594 20.8235 21.781 21.93C22.121 23.1134 22.0434 24.375 21.5607 25.5096C21.0779 26.6443 20.2185 27.5854 19.122 28.18C18.7504 28.4214 18.4654 28.7711 18.307 29.18C18.2035 29.5832 17.9638 29.9402 17.6271 30.1926C17.2904 30.4451 16.8765 30.5781 16.4529 30.57C16.049 30.5546 15.6606 30.4136 15.3438 30.1674C15.027 29.9211 14.7982 29.5823 14.6904 29.2C14.5076 28.7578 14.1957 28.3786 13.7939 28.11C13.0155 27.6649 12.3586 27.0411 11.8795 26.2922C11.4005 25.5433 11.1135 24.6916 11.0433 23.81Z" fill="url(#paint3_linear_39_1289)"/>
<path d="M29.3809 77.4101H46.9136C47.2525 77.3806 47.5935 77.3806 47.9324 77.4101C48.364 77.4739 48.758 77.6877 49.0428 78.0125C49.3275 78.3373 49.4841 78.7516 49.4841 79.1801C49.4841 79.6086 49.3275 80.0228 49.0428 80.3476C48.758 80.6724 48.364 80.8862 47.9324 80.95C47.5935 80.9795 47.2525 80.9795 46.9136 80.95H11.8074C11.4684 80.9797 11.1275 80.9797 10.7886 80.95C10.3434 80.9035 9.93151 80.697 9.63216 80.3702C9.3328 80.0434 9.16718 79.6195 9.16718 79.1801C9.16718 78.7406 9.3328 78.3167 9.63216 77.9899C9.93151 77.6631 10.3434 77.4566 10.7886 77.4101C11.1275 77.3804 11.4684 77.3804 11.8074 77.4101H29.3809Z" fill="url(#paint4_linear_39_1289)"/>
<path d="M73.3299 85.85C73.3299 88.36 73.3299 90.85 73.3299 93.38C73.3612 94.1215 73.2362 94.8614 72.9626 95.5533C72.6891 96.2452 72.2729 96.8741 71.7402 97.4008C71.2075 97.9275 70.5697 98.3405 69.8668 98.6139C69.1639 98.8874 68.4111 99.0155 67.6555 98.99C67.0447 99.0251 66.4324 99.0251 65.8217 98.99C65.3587 98.9517 64.9289 98.7384 64.623 98.3952C64.317 98.0519 64.1587 97.6055 64.1815 97.15C64.1809 96.7117 64.3518 96.2898 64.6589 95.9716C64.966 95.6534 65.386 95.4631 65.8319 95.44C66.3645 95.405 66.8988 95.405 67.4313 95.44C69.0002 95.44 69.6624 94.78 69.6624 93.24C69.6624 88.49 69.6624 83.73 69.6624 78.98V78.08C69.6624 76.48 70.3246 75.63 71.5267 75.65C72.7288 75.67 73.3299 76.5 73.3299 78.03C73.3401 80.61 73.3299 83.23 73.3299 85.85Z" fill="url(#paint5_linear_39_1289)"/>
<path d="M69.6624 51.19C69.6624 48.08 69.6624 44.96 69.6624 41.85C69.6624 40.43 70.345 39.61 71.486 39.61C72.627 39.61 73.3198 40.43 73.3198 41.85C73.3198 48.15 73.3198 54.45 73.3198 60.75C73.3198 62.16 72.627 62.99 71.486 62.99C70.345 62.99 69.6624 62.17 69.6624 60.75C69.6624 57.5566 69.6624 54.37 69.6624 51.19Z" fill="url(#paint6_linear_39_1289)"/>
<path d="M20.0491 68.4101H11.461C10.0144 68.4101 9.17902 67.7301 9.17902 66.6101C9.17902 65.4901 10.0144 64.8101 11.461 64.8101H28.8715C30.3182 64.8101 31.1535 65.4901 31.1535 66.6101C31.1535 67.7301 30.3182 68.4001 28.8715 68.4101H20.0491Z" fill="url(#paint7_linear_39_1289)"/>
<path d="M35.6768 18C33.6902 18 31.7036 18 29.717 18C28.3519 18 27.5369 17.34 27.5064 16.25C27.4758 15.16 28.3213 14.41 29.7476 14.41H41.7791C43.1442 14.41 43.9592 15.08 43.9898 16.16C44.0204 17.24 43.1646 17.99 41.7486 18C39.7314 18.01 37.7041 18 35.6768 18Z" fill="url(#paint8_linear_39_1289)"/>
<path d="M51.335 55.0099C51.335 56.9599 51.335 58.91 51.335 60.86C51.335 62.18 50.6117 62.9899 49.5114 62.9899C48.4112 62.9899 47.6879 62.18 47.6777 60.86C47.6777 56.86 47.6777 52.8866 47.6777 48.9399C47.6777 47.6099 48.401 46.8099 49.5114 46.8099C50.6219 46.8099 51.335 47.6199 51.335 48.9399C51.3452 50.9599 51.335 52.9899 51.335 55.0099Z" fill="url(#paint9_linear_39_1289)"/>
<path d="M16.4937 43.2H11.3388C9.99401 43.2 9.17902 42.49 9.17902 41.4C9.17902 40.31 9.99399 39.61 11.3489 39.61C14.7821 39.61 18.2256 39.61 21.6588 39.61C23.0035 39.61 23.8287 40.31 23.8287 41.4C23.8287 42.49 22.9933 43.19 21.6486 43.2H16.4937Z" fill="url(#paint10_linear_39_1289)"/>
<path d="M55.0025 55.72C55.0025 54.07 55.0025 52.42 55.0025 50.77C55.0025 49.43 55.6952 48.63 56.7955 48.61C57.8958 48.59 58.6598 49.39 58.6598 50.7C58.6598 54.12 58.6598 57.5333 58.6598 60.94C58.6927 61.1926 58.6712 61.4491 58.5967 61.6931C58.5222 61.937 58.3964 62.1629 58.2274 62.3561C58.0584 62.5493 57.85 62.7056 57.6157 62.8148C57.3813 62.9239 57.1262 62.9836 56.8668 62.99C55.7564 62.99 55.0127 62.2 55.0025 60.89C54.9923 59.17 55.0025 57.41 55.0025 55.72Z" fill="url(#paint11_linear_39_1289)"/>
<path d="M16.4122 55.8C14.6905 55.8 12.979 55.8 11.2573 55.8C11.0036 55.8264 10.7471 55.8007 10.504 55.7248C10.261 55.6489 10.0366 55.5243 9.84509 55.3588C9.6536 55.1934 9.49916 54.9908 9.39152 54.7638C9.28389 54.5368 9.22538 54.2903 9.21975 54.04C9.21356 53.7837 9.26356 53.529 9.36634 53.2933C9.46912 53.0576 9.6223 52.8462 9.8155 52.6737C10.0087 52.5011 10.2374 52.3713 10.4861 52.293C10.7349 52.2147 10.9979 52.1898 11.2573 52.22C14.7618 52.22 18.2731 52.22 21.7912 52.22C22.0485 52.1877 22.3099 52.2088 22.5584 52.2819C22.8069 52.3551 23.037 52.4785 23.2339 52.6444C23.4307 52.8103 23.5899 53.0149 23.7011 53.245C23.8124 53.475 23.8732 53.7254 23.8796 53.98C23.8796 55.07 23.0646 55.79 21.7301 55.81L16.4122 55.8Z" fill="url(#paint12_linear_39_1289)"/>
<path d="M65.9949 56.71C65.9949 58.13 65.9949 59.56 65.9949 60.98C66.0286 61.2352 66.0064 61.4945 65.9299 61.7406C65.8534 61.9868 65.7244 62.2141 65.5513 62.4074C65.3783 62.6007 65.1652 62.7555 64.9264 62.8616C64.6876 62.9677 64.4284 63.0226 64.1662 63.0226C63.9041 63.0226 63.6449 62.9677 63.4061 62.8616C63.1673 62.7555 62.9542 62.6007 62.7811 62.4074C62.6081 62.2141 62.479 61.9868 62.4025 61.7406C62.326 61.4945 62.3039 61.2352 62.3375 60.98C62.3375 58.13 62.3375 55.29 62.3375 52.44C62.3039 52.1848 62.326 51.9255 62.4025 51.6794C62.479 51.4332 62.6081 51.2059 62.7811 51.0126C62.9542 50.8193 63.1673 50.6645 63.4061 50.5584C63.6449 50.4523 63.9041 50.3975 64.1662 50.3975C64.4284 50.3975 64.6876 50.4523 64.9264 50.5584C65.1652 50.6645 65.3783 50.8193 65.5513 51.0126C65.7244 51.2059 65.8534 51.4332 65.9299 51.6794C66.0064 51.9255 66.0286 52.1848 65.9949 52.44C66.056 53.86 65.9949 55.28 65.9949 56.71Z" fill="url(#paint13_linear_39_1289)"/>
<path d="M40.3325 58.46C40.3325 57.6 40.3325 56.74 40.3325 55.88C40.3291 55.6449 40.373 55.4115 40.4615 55.1931C40.5501 54.9746 40.6816 54.7755 40.8486 54.607C41.0155 54.4384 41.2147 54.3038 41.4347 54.2108C41.6546 54.1178 41.8911 54.0683 42.1306 54.065C42.3701 54.0617 42.6078 54.1047 42.8304 54.1917C43.0529 54.2786 43.2558 54.4077 43.4275 54.5716C43.5992 54.7355 43.7363 54.931 43.8311 55.1469C43.9258 55.3628 43.9763 55.5949 43.9796 55.83C43.9796 57.59 43.9796 59.36 43.9796 61.12C43.9749 61.3551 43.9231 61.5869 43.8272 61.8023C43.7312 62.0177 43.5929 62.2125 43.4203 62.3755C43.2477 62.5384 43.044 62.6664 42.8209 62.7521C42.5979 62.8378 42.3599 62.8796 42.1204 62.875C41.8809 62.8704 41.6447 62.8195 41.4253 62.7253C41.2058 62.6311 41.0074 62.4954 40.8414 62.326C40.6754 62.1565 40.545 61.9566 40.4576 61.7377C40.3703 61.5187 40.3278 61.2851 40.3325 61.05C40.3121 60.19 40.3325 59.33 40.3325 58.46Z" fill="url(#paint14_linear_39_1289)"/>
</g>
<defs>
<linearGradient id="paint0_linear_39_1289" x1="-0.040741" y1="0.0100098" x2="91.5358" y2="21.5039" gradientUnits="userSpaceOnUse">
<stop stop-color="#252FF2"/>
<stop offset="1" stop-color="#0B9CFF"/>
</linearGradient>
<linearGradient id="paint1_linear_39_1289" x1="27.5748" y1="17.9779" x2="101.499" y2="33.1837" gradientUnits="userSpaceOnUse">
<stop stop-color="#252FF2"/>
<stop offset="1" stop-color="#0B9CFF"/>
</linearGradient>
<linearGradient id="paint2_linear_39_1289" x1="36.6129" y1="17.9948" x2="92.808" y2="43.3586" gradientUnits="userSpaceOnUse">
<stop stop-color="#252FF2"/>
<stop offset="1" stop-color="#0B9CFF"/>
</linearGradient>
<linearGradient id="paint3_linear_39_1289" x1="11.0433" y1="9.02527" x2="25.1438" y2="11.3011" gradientUnits="userSpaceOnUse">
<stop stop-color="#252FF2"/>
<stop offset="1" stop-color="#0B9CFF"/>
</linearGradient>
<linearGradient id="paint4_linear_39_1289" x1="9.16718" y1="77.3878" x2="13.051" y2="91.2097" gradientUnits="userSpaceOnUse">
<stop stop-color="#252FF2"/>
<stop offset="1" stop-color="#0B9CFF"/>
</linearGradient>
<linearGradient id="paint5_linear_39_1289" x1="64.1793" y1="75.6497" x2="76.049" y2="77.1212" gradientUnits="userSpaceOnUse">
<stop stop-color="#252FF2"/>
<stop offset="1" stop-color="#0B9CFF"/>
</linearGradient>
<linearGradient id="paint6_linear_39_1289" x1="69.6624" y1="39.61" x2="74.4652" y2="39.8477" gradientUnits="userSpaceOnUse">
<stop stop-color="#252FF2"/>
<stop offset="1" stop-color="#0B9CFF"/>
</linearGradient>
<linearGradient id="paint7_linear_39_1289" x1="9.17902" y1="64.8101" x2="15.2946" y2="76.6214" gradientUnits="userSpaceOnUse">
<stop stop-color="#252FF2"/>
<stop offset="1" stop-color="#0B9CFF"/>
</linearGradient>
<linearGradient id="paint8_linear_39_1289" x1="27.5056" y1="14.41" x2="34.4929" y2="24.5495" gradientUnits="userSpaceOnUse">
<stop stop-color="#252FF2"/>
<stop offset="1" stop-color="#0B9CFF"/>
</linearGradient>
<linearGradient id="paint9_linear_39_1289" x1="47.6777" y1="46.8099" x2="52.4736" y2="47.1534" gradientUnits="userSpaceOnUse">
<stop stop-color="#252FF2"/>
<stop offset="1" stop-color="#0B9CFF"/>
</linearGradient>
<linearGradient id="paint10_linear_39_1289" x1="9.17902" y1="39.61" x2="16.4097" y2="48.946" gradientUnits="userSpaceOnUse">
<stop stop-color="#252FF2"/>
<stop offset="1" stop-color="#0B9CFF"/>
</linearGradient>
<linearGradient id="paint11_linear_39_1289" x1="54.998" y1="48.6096" x2="59.8067" y2="48.9986" gradientUnits="userSpaceOnUse">
<stop stop-color="#252FF2"/>
<stop offset="1" stop-color="#0B9CFF"/>
</linearGradient>
<linearGradient id="paint12_linear_39_1289" x1="9.21924" y1="52.2053" x2="16.4857" y2="61.556" gradientUnits="userSpaceOnUse">
<stop stop-color="#252FF2"/>
<stop offset="1" stop-color="#0B9CFF"/>
</linearGradient>
<linearGradient id="paint13_linear_39_1289" x1="62.3223" y1="50.3975" x2="67.1512" y2="50.8452" gradientUnits="userSpaceOnUse">
<stop stop-color="#252FF2"/>
<stop offset="1" stop-color="#0B9CFF"/>
</linearGradient>
<linearGradient id="paint14_linear_39_1289" x1="40.3234" y1="54.0648" x2="45.0549" y2="54.6861" gradientUnits="userSpaceOnUse">
<stop stop-color="#252FF2"/>
<stop offset="1" stop-color="#0B9CFF"/>
</linearGradient>
<clipPath id="clip0_39_1289">
<rect width="88" height="108" fill="white"/>
</clipPath>
</defs>
</svg>
