<svg width="24" height="25" viewBox="0 0 24 25" fill="none" xmlns="http://www.w3.org/2000/svg">
<g clip-path="url(#clip0_12_462)">
<path d="M23.92 7.04342C23.88 5.76342 23.64 4.88342 23.36 4.12342C23.04 3.32342 22.6 2.60342 21.96 2.00342C21.36 1.40342 20.64 0.923418 19.84 0.603418C19.08 0.323418 18.2 0.123418 16.92 0.043418C15.68 0.00341797 15.24 0.00341797 12 0.00341797C8.76 0.00341797 8.32 0.00341797 7.04 0.083418C5.76 0.123418 4.88 0.363418 4.12 0.643418C3.32 0.923418 2.6 1.40342 2 2.00342C1.4 2.60342 0.92 3.32342 0.6 4.12342C0.32 4.88342 0.12 5.76342 0.04 7.04342C0 8.32342 0 8.76342 0 12.0034C0 15.2434 0 15.6834 0.08 16.9634C0.12 18.2434 0.36 19.1234 0.64 19.8834C0.96 20.6834 1.4 21.4034 2.04 22.0034C2.64 22.6034 3.36 23.0834 4.16 23.4034C4.92 23.6834 5.8 23.8834 7.08 23.9634C8.32 24.0034 8.76 24.0034 12 24.0034C15.24 24.0034 15.68 24.0034 16.96 23.9234C18.24 23.8834 19.12 23.6434 19.88 23.3634C21.48 22.7234 22.76 21.4834 23.4 19.8434C23.68 19.0834 23.88 18.2034 23.96 16.9234C24 15.6834 24 15.2434 24 12.0034C24 8.76342 24 8.32342 23.92 7.04342ZM21.76 16.8434C21.72 18.0034 21.52 18.6434 21.36 19.0834C20.96 20.1234 20.12 20.9634 19.08 21.3634C18.64 21.5234 18.04 21.7234 16.84 21.7634C15.6 21.8434 15.2 21.8434 12 21.8434C8.8 21.8434 8.4 21.8434 7.16 21.7634C6 21.7234 5.36 21.5234 4.92 21.3634C4.4 21.1634 3.92 20.8834 3.56 20.4834C3.16 20.0834 2.84 19.6434 2.68 19.1234C2.52 18.6834 2.32 18.0834 2.28 16.8834C2.16 15.6034 2.16 15.2034 2.16 12.0034C2.16 8.80342 2.16 8.40342 2.24 7.16342C2.28 6.00342 2.48 5.36342 2.64 4.92342C2.84 4.40342 3.16 3.92342 3.56 3.56342C3.96 3.16342 4.4 2.84342 4.92 2.68342C5.36 2.52342 5.96 2.32342 7.16 2.28342C8.4 2.16342 8.8 2.16342 12 2.16342C15.2 2.16342 15.6 2.16342 16.84 2.24342C18 2.28342 18.64 2.48342 19.08 2.64342C19.6 2.84342 20.08 3.12342 20.44 3.52342C20.84 3.92342 21.16 4.36342 21.32 4.88342C21.48 5.32342 21.68 5.92342 21.72 7.12342C21.84 8.40342 21.84 8.80342 21.84 12.0034C21.84 15.2034 21.84 15.6034 21.76 16.8434Z" fill="white"/>
<path d="M12 5.84375C8.6 5.84375 5.84 8.60375 5.84 12.0038C5.84 15.4038 8.6 18.1638 12 18.1638C15.4 18.1638 18.16 15.4038 18.16 12.0038C18.16 8.60375 15.4 5.84375 12 5.84375ZM12 16.0038C9.8 16.0038 8 14.2038 8 12.0038C8 9.80375 9.8 8.00375 12 8.00375C14.2 8.00375 16 9.80375 16 12.0038C16 14.2038 14.2 16.0038 12 16.0038Z" fill="white"/>
<path d="M19.84 5.60309C19.84 6.40309 19.2 7.04309 18.4 7.04309C17.6 7.04309 16.96 6.40309 16.96 5.60309C16.96 4.80309 17.6 4.16309 18.4 4.16309C19.2 4.16309 19.84 4.80309 19.84 5.60309Z" fill="white"/>
</g>
<defs>
<clipPath id="clip0_12_462">
<rect width="24" height="24" fill="white" transform="translate(0 0.00341797)"/>
</clipPath>
</defs>
</svg>
