<svg width="48" height="48" viewBox="0 0 48 48" fill="none" xmlns="http://www.w3.org/2000/svg">
<path d="M24.0423 2.00012C19.0669 1.98449 14.2098 3.43893 10.1449 6.16162C6.08003 8.88431 3.00897 12.7402 1.3579 17.1943C-0.293165 21.6483 -0.442371 26.4797 0.930992 31.0179C2.30435 35.556 5.13218 39.576 9.02206 42.52C9.21057 42.6706 9.42895 42.7839 9.66433 42.8532C9.89971 42.9225 10.1473 42.9463 10.3926 42.9233C10.6378 42.9003 10.8757 42.831 11.0923 42.7194C11.3089 42.6078 11.4997 42.4561 11.6535 42.2734C11.8073 42.0907 11.9211 41.8806 11.988 41.6555C12.0549 41.4304 12.0736 41.1949 12.0431 40.9629C12.0126 40.7308 11.9334 40.5069 11.8103 40.3043C11.6871 40.1017 11.5225 39.9246 11.326 39.7834C8.03401 37.2966 5.64026 33.8981 4.4776 30.0606C3.31495 26.223 3.44116 22.137 4.8387 18.3706C6.2362 14.601 8.83482 11.3372 12.2744 9.03183C15.7139 6.72643 19.824 5.49355 24.0349 5.50409C28.2463 5.50546 32.3526 6.75157 35.7835 9.0693C39.2144 11.387 41.7994 14.6613 43.1794 18.4372C44.5632 22.209 44.6743 26.2963 43.497 30.1307C42.3198 33.9652 39.9129 37.3562 36.6108 39.8324C36.4112 39.972 36.2432 40.1483 36.1169 40.3508C35.9906 40.5534 35.9086 40.778 35.8758 41.0112C35.843 41.2445 35.8601 41.4816 35.9259 41.7085C35.9918 41.9354 36.1052 42.1473 36.2593 42.3317C36.4134 42.5161 36.605 42.6691 36.8228 42.7816C37.0406 42.8942 37.28 42.964 37.5268 42.9868C37.7736 43.0096 38.0228 42.9849 38.2593 42.9144C38.4959 42.8438 38.7151 42.7287 38.9037 42.576C42.8065 39.6462 45.6514 35.636 47.0434 31.1021C48.4354 26.5681 48.3055 21.7354 46.6717 17.2747C45.0379 12.814 41.9813 8.94671 37.9262 6.20953C33.871 3.47236 29.0185 2.00115 24.0423 2.00012ZM23.9684 11.17C23.4801 11.1774 23.0147 11.3681 22.6742 11.7004C22.3337 12.0327 22.1459 12.4795 22.1518 12.943V29.9828L17.47 25.5433C17.2973 25.376 17.091 25.2434 16.8633 25.1531C16.6357 25.0628 16.3912 25.0168 16.1445 25.0177C15.7785 25.0191 15.4211 25.1238 15.1179 25.3183C14.8147 25.5129 14.5793 25.7886 14.4416 26.1105C14.3039 26.4323 14.2701 26.7857 14.3445 27.1258C14.4189 27.4659 14.5982 27.7774 14.8596 28.0206L22.5358 35.3018C22.7092 35.5159 22.9324 35.6891 23.1879 35.8078C23.4435 35.9266 23.7245 35.9877 24.009 35.9863C24.2936 35.985 24.5739 35.9212 24.8282 35.8C25.0825 35.6789 25.3038 35.5035 25.4749 35.2878L33.1364 28.0206C33.3127 27.8589 33.4533 27.6656 33.5501 27.4519C33.6469 27.2381 33.6978 27.0082 33.6999 26.7756C33.702 26.543 33.6553 26.3123 33.5625 26.097C33.4697 25.8816 33.3326 25.686 33.1593 25.5215C32.9859 25.357 32.7798 25.2269 32.5529 25.1389C32.326 25.0508 32.0829 25.0064 31.8378 25.0085C31.5927 25.0105 31.3504 25.0588 31.1252 25.1506C30.8999 25.2425 30.6962 25.3759 30.5259 25.5433L25.8441 29.9828V12.943C25.8471 12.7088 25.8006 12.4764 25.7073 12.2595C25.614 12.0427 25.4758 11.8458 25.3009 11.6805C25.1261 11.5152 24.9181 11.3848 24.6892 11.2971C24.4603 11.2095 24.2152 11.1662 23.9684 11.17ZM16.9826 39.496C16.493 39.496 16.0234 39.6806 15.6772 40.0092C15.331 40.3377 15.1365 40.7834 15.1365 41.248C15.1365 41.7127 15.331 42.1583 15.6772 42.4869C16.0234 42.8154 16.493 43 16.9826 43H31.0133C31.5029 43 31.9725 42.8154 32.3187 42.4869C32.665 42.1583 32.8595 41.7127 32.8595 41.248C32.8595 40.7834 32.665 40.3377 32.3187 40.0092C31.9725 39.6806 31.5029 39.496 31.0133 39.496H16.9826Z" fill="white"/>
</svg>
