<svg width="30" height="30" viewBox="0 0 30 30" fill="none" xmlns="http://www.w3.org/2000/svg">
<path d="M15.0001 0C15.3241 0.030161 15.6383 0.127707 15.9224 0.286384C16.2066 0.445061 16.4544 0.661365 16.6501 0.921428C17.4329 1.83616 18.0363 2.89028 18.4286 4.02857C18.9889 5.49749 19.3981 7.01962 19.6501 8.57143H10.3501C10.6056 7.02262 11.0074 5.50153 11.5501 4.02857C11.9569 2.8924 12.5669 1.83959 13.3501 0.921428C13.5438 0.659407 13.7912 0.441698 14.0757 0.282811C14.3602 0.123925 14.6753 0.0275119 15.0001 0ZM10.9286 0.578571C10.378 1.42036 9.91823 2.31825 9.55721 3.25714C8.91055 4.97569 8.44377 6.75663 8.16435 8.57143H1.4572C2.37533 6.64125 3.69535 4.92958 5.32885 3.55109C6.96234 2.1726 8.87157 1.15912 10.9286 0.578571ZM19.0715 0.578571C21.1285 1.15912 23.0378 2.1726 24.6713 3.55109C26.3048 4.92958 27.6248 6.64125 28.5429 8.57143H21.8358C21.5564 6.75663 21.0896 4.97569 20.4429 3.25714C20.0853 2.31675 19.6254 1.41851 19.0715 0.578571ZM0.62149 10.7143H7.9072C7.74617 12.1373 7.66034 13.5679 7.65006 15C7.6571 16.4322 7.74295 17.8629 7.9072 19.2857H0.62149C0.211342 17.894 0.00208614 16.4509 6.10352e-05 15C0.00666814 13.5495 0.215831 12.107 0.62149 10.7143ZM10.0501 10.7143H19.9501C20.1143 12.1371 20.2002 13.5678 20.2072 15C20.2002 16.4322 20.1143 17.8629 19.9501 19.2857H10.0715C9.88916 17.8644 9.79612 16.433 9.79292 15C9.79996 13.5678 9.88581 12.1371 10.0501 10.7143ZM22.0929 10.7143H29.3786C30.2123 13.5106 30.2123 16.4894 29.3786 19.2857H22.0929C22.2572 17.8629 22.343 16.4322 22.3501 15C22.343 13.5678 22.2572 12.1371 22.0929 10.7143ZM1.4572 21.4286H8.16435C8.44156 23.2508 8.90837 25.0391 9.55721 26.7643C9.92271 27.6944 10.3822 28.5847 10.9286 29.4214C8.87157 28.8409 6.96234 27.8274 5.32885 26.4489C3.69535 25.0704 2.37533 23.3587 1.4572 21.4286ZM10.3501 21.4286H19.6501C19.3972 22.978 18.9954 24.4993 18.4501 25.9714C18.0432 27.1076 17.4333 28.1604 16.6501 29.0786C16.4638 29.3481 16.2182 29.5713 15.9321 29.731C15.6461 29.8907 15.3272 29.9828 15.0001 30C14.6747 29.9753 14.3585 29.88 14.0736 29.7209C13.7887 29.5618 13.5418 29.3426 13.3501 29.0786C12.5672 28.1638 11.9638 27.1097 11.5715 25.9714C11.0085 24.5034 10.5992 22.981 10.3501 21.4286ZM21.8358 21.4286H28.5429C27.6248 23.3587 26.3048 25.0704 24.6713 26.4489C23.0378 27.8274 21.1285 28.8409 19.0715 29.4214C19.6179 28.5847 20.0774 27.6944 20.4429 26.7643C21.0917 25.0391 21.5586 23.2508 21.8358 21.4286Z" fill="white"/>
</svg>
