<svg width="24" height="25" viewBox="0 0 24 25" fill="none" xmlns="http://www.w3.org/2000/svg">
<g clip-path="url(#clip0_12_452)">
<path d="M24 24.0021V15.2021C24 10.9021 23.1 7.60205 18 7.60205C15.6 7.60205 14 8.90205 13.3 10.2021H13.2V8.00205H8.5V24.0021H13.5V16.1021C13.5 14.0021 13.9 12.0021 16.5 12.0021C19 12.0021 19.1 14.4021 19.1 16.2021V24.0021H24Z" fill="white"/>
<path d="M0.400002 8.00195H5.4V24.002H0.400002V8.00195Z" fill="white"/>
<path d="M2.9 0.00195312C1.3 0.00195312 0 1.30195 0 2.90195C0 4.50195 1.3 5.80195 2.9 5.80195C4.5 5.80195 5.8 4.50195 5.8 2.90195C5.8 1.30195 4.5 0.00195312 2.9 0.00195312Z" fill="white"/>
</g>
<defs>
<clipPath id="clip0_12_452">
<rect width="24" height="24" fill="white" transform="translate(0 0.00195312)"/>
</clipPath>
</defs>
</svg>
