<svg width="374" height="60" viewBox="0 0 374 60" fill="none" xmlns="http://www.w3.org/2000/svg">
<g clip-path="url(#clip0_12_500)">
<path d="M15.6056 14.9333L24.1811 15.0724C26.8263 15.1176 29.4131 15.855 31.6827 17.2106C33.9524 18.5662 35.8254 20.4926 37.1141 22.7969C38.395 25.1026 39.047 27.703 39.0051 30.3386C38.9631 32.9741 38.2286 35.5526 36.875 37.8165C35.5213 40.0804 33.5959 41.9505 31.291 43.24C28.986 44.5295 26.3822 45.1933 23.7396 45.1651L15.0246 45.026L7.41353 57.6994H7.27991L7.34381 57.8153L23.5246 58.0703C28.4431 58.1477 33.2955 56.9325 37.594 54.547C41.8926 52.1614 45.4859 48.6895 48.013 44.4801C50.5401 40.2707 51.9118 35.472 51.9905 30.5663C52.0691 25.6605 50.8519 20.8206 48.461 16.5327C46.0665 12.2451 42.5825 8.66178 38.3591 6.14312C34.1358 3.62446 29.3221 2.2592 24.4019 2.1846L8.35474 1.92383L15.6056 14.9333Z" fill="white"/>
<path d="M24.0301 30.0057L15.0072 45.0259L14.9839 45.0607H0.209159L0 44.6725H0.13363L7.7447 32.0049L9.081 29.7739L7.87833 27.6182L0.813397 14.9448H15.6288L24.0301 30.0057Z" fill="#08D1FF"/>
<path d="M14.9838 45.061L7.39593 57.6996H7.2623L0.208984 45.061H14.9838Z" fill="#0B9CFF"/>
<path d="M15.6288 14.9448L15.4836 14.939L15.4778 14.9448H0.813399L0.61586 14.5913L8.22112 1.9179L8.35475 1.91211L15.6288 14.9448Z" fill="#0B9CFF"/>
<path d="M96.8814 13.5366V44.4464C96.8814 55.3813 88.3349 59.9998 79.6548 59.9998C72.8688 59.9998 67.1924 57.4617 64.1887 52.1246L72.5434 47.3091C73.7809 49.5865 75.675 51.406 79.9802 51.406C84.5468 51.406 87.353 49.0881 87.353 44.4522V41.4563C85.1975 44.1219 82.066 45.6865 77.8247 45.6865C68.5578 45.6865 61.7717 38.1532 61.7717 29.1538C61.7717 20.1544 68.5519 12.6152 77.8189 12.6152C82.0601 12.6152 85.1917 14.174 87.3472 16.8455V13.525H96.8756L96.8814 13.5366ZM87.353 29.1827C87.353 24.6917 84.0878 21.6494 79.4573 21.6494C74.8267 21.6494 71.5615 24.7091 71.5615 29.1827C71.5615 33.6564 74.8267 36.7161 79.4573 36.7161C84.0878 36.7161 87.353 33.6564 87.353 29.1827Z" fill="white"/>
<path d="M99.8155 29.8029C99.8028 26.3894 100.806 23.0489 102.698 20.2045C104.591 17.3601 107.286 15.1398 110.445 13.8248C113.603 12.5097 117.082 12.1591 120.44 12.8173C123.798 13.4755 126.885 15.1129 129.309 17.5222C131.734 19.9315 133.387 23.0042 134.059 26.3512C134.732 29.6982 134.393 33.169 133.086 36.3239C131.78 39.4789 129.563 42.176 126.719 44.0738C123.874 45.9716 120.528 46.9847 117.106 46.9847C114.834 47.0102 112.579 46.5836 110.474 45.73C108.369 44.8763 106.455 43.6127 104.845 42.013C103.236 40.4133 101.962 38.5095 101.098 36.413C100.234 34.3166 99.7983 32.0694 99.8155 29.8029ZM124.612 29.8029C124.612 25.167 121.347 22.1247 117.112 22.1247C112.876 22.1247 109.605 25.1844 109.605 29.8029C109.605 34.4214 112.87 37.4811 117.112 37.4811C121.353 37.4811 124.612 34.4214 124.612 29.8029Z" fill="white"/>
<path d="M165.067 19.1346V0.521484H170.732V46.0807H165.056V40.4828C162.275 44.7788 158.163 46.9267 152.721 46.9267C150.536 46.9676 148.366 46.5485 146.354 45.6968C144.342 44.845 142.532 43.5799 141.043 41.9837C137.942 38.6994 136.215 34.358 136.215 29.8464C136.215 25.3348 137.942 20.9934 141.043 17.709C142.528 16.1032 144.335 14.827 146.347 13.9634C148.359 13.0998 150.531 12.6681 152.721 12.6965C158.144 12.6965 162.255 14.8445 165.056 19.1404M153.436 41.4622C154.971 41.5024 156.498 41.2286 157.923 40.6575C159.348 40.0864 160.64 39.2302 161.721 38.1417C162.803 37.043 163.655 35.7403 164.226 34.3095C164.798 32.8787 165.078 31.3486 165.05 29.8087C165.087 28.278 164.811 26.7559 164.238 25.3351C163.666 23.9144 162.809 22.6249 161.721 21.5452C160.649 20.4404 159.36 19.5693 157.934 18.9868C156.508 18.4043 154.976 18.1231 153.436 18.161C151.905 18.1231 150.383 18.4046 148.967 18.9873C147.551 19.5701 146.273 20.4413 145.215 21.5452C144.123 22.6228 143.265 23.912 142.692 25.3332C142.12 26.7544 141.845 28.2776 141.885 29.8087C141.853 31.3492 142.131 32.8805 142.703 34.3119C143.275 35.7432 144.129 37.0456 145.215 38.1417C146.285 39.2256 147.567 40.0794 148.981 40.6505C150.395 41.2216 151.911 41.4978 153.436 41.4622Z" fill="white"/>
<path d="M204.285 41.9782C201.46 44.8186 197.734 46.5931 193.743 46.9992C189.753 47.4052 185.744 46.4176 182.403 44.2047C179.061 41.9919 176.592 38.691 175.418 34.8653C174.244 31.0396 174.438 26.9261 175.965 23.2268C177.493 19.5274 180.261 16.4714 183.795 14.5803C187.33 12.6891 191.414 12.0799 195.349 12.8567C199.284 13.6334 202.826 15.748 205.373 18.8396C207.919 21.9311 209.311 25.8081 209.31 29.809C209.352 32.0725 208.928 34.3205 208.063 36.4137C207.199 38.507 205.913 40.4009 204.285 41.9782ZM192.084 41.3987C195.166 41.3987 198.121 40.1777 200.3 38.0042C202.479 35.8307 203.704 32.8828 203.704 29.809C203.704 26.7352 202.479 23.7873 200.3 21.6138C198.121 19.4403 195.166 18.2193 192.084 18.2193C190.572 18.1877 189.07 18.4661 187.671 19.0373C186.272 19.6085 185.005 20.4602 183.95 21.5397C181.813 23.7632 180.621 26.7237 180.621 29.8032C180.621 32.8828 181.813 35.8433 183.95 38.0667C185.007 39.1437 186.274 39.9938 187.673 40.5648C189.072 41.1358 190.573 41.4156 192.084 41.3871" fill="white"/>
<path d="M248.656 12.6909C252.351 12.6909 255.32 13.8846 257.562 16.2721C259.805 18.6596 260.924 21.8487 260.92 25.8394V46.0809H255.244V26.0364C255.244 23.5601 254.603 21.6188 253.321 20.2126C252.654 19.5044 251.841 18.9486 250.939 18.5835C250.036 18.2184 249.065 18.0525 248.092 18.0975C245.57 18.0975 243.603 18.9319 242.189 20.6008C240.775 22.2698 240.068 24.7326 240.068 27.9893V46.0809H234.392V26.0364C234.392 23.5601 233.772 21.6188 232.533 20.2126C231.9 19.5081 231.119 18.9529 230.244 18.5871C229.37 18.2212 228.425 18.054 227.478 18.0975C226.344 18.0584 225.216 18.2687 224.173 18.7133C223.129 19.158 222.197 19.8261 221.442 20.6704C219.892 22.3857 219.118 24.8253 219.118 27.9893V46.0809H213.441V13.5427H219.118V17.9004C221.337 14.4235 224.577 12.6851 228.838 12.6851C233.102 12.6851 236.426 14.5278 238.43 18.2192C240.692 14.5336 244.106 12.6889 248.673 12.6851" fill="white"/>
<path d="M293.218 19.1346V13.5368H298.894V46.075H293.218V40.4771C290.433 44.773 286.322 46.921 280.883 46.921C278.698 46.9618 276.528 46.5427 274.516 45.691C272.504 44.8393 270.694 43.5741 269.205 41.978C266.104 38.6936 264.377 34.3523 264.377 29.8407C264.377 25.3291 266.104 20.9877 269.205 17.7033C270.69 16.0974 272.498 14.8212 274.51 13.9576C276.522 13.0941 278.693 12.6624 280.883 12.6908C286.306 12.6908 290.418 14.8387 293.218 19.1346ZM281.598 41.4564C283.136 41.4945 284.665 41.2174 286.091 40.6423C287.517 40.0671 288.81 39.2062 289.889 38.1128C290.971 37.0142 291.823 35.7114 292.395 34.2806C292.966 32.8498 293.246 31.3197 293.218 29.7798C293.255 28.2491 292.979 26.7269 292.406 25.3062C291.834 23.8855 290.978 22.596 289.889 21.5163C288.818 20.4115 287.528 19.5404 286.102 18.9579C284.676 18.3754 283.144 18.0942 281.604 18.1321C280.073 18.0942 278.551 18.3757 277.135 18.9584C275.719 19.5412 274.441 20.4124 273.383 21.5163C272.294 22.5991 271.439 23.8931 270.871 25.3184C270.304 26.7438 270.035 28.2701 270.083 29.803C270.05 31.3376 270.325 32.8632 270.891 34.2903C271.458 35.7174 272.305 37.017 273.383 38.1128C274.453 39.1967 275.735 40.0505 277.149 40.6216C278.563 41.1927 280.079 41.4689 281.604 41.4333" fill="white"/>
<path d="M307.772 7.61453C307.263 7.62702 306.758 7.53523 306.286 7.34484C305.814 7.15446 305.387 6.86954 305.03 6.50771C304.672 6.16236 304.389 5.74774 304.199 5.28932C304.008 4.8309 303.913 4.33838 303.92 3.84207C303.915 3.34087 304.011 2.84373 304.201 2.37995C304.392 1.91617 304.673 1.49514 305.03 1.14168C305.38 0.767871 305.805 0.471562 306.278 0.271921C306.75 0.0722809 307.259 -0.0262448 307.772 -0.0172913C308.275 -0.0278838 308.774 0.0702016 309.236 0.270259C309.697 0.470316 310.109 0.767605 310.445 1.14168C310.801 1.49495 311.083 1.91593 311.274 2.37976C311.464 2.84358 311.56 3.34082 311.554 3.84207C311.553 4.84212 311.154 5.80078 310.445 6.50792C309.736 7.21507 308.775 7.613 307.772 7.61453ZM310.578 46.0808H304.902V13.5427H310.578V46.0808Z" fill="white"/>
<path d="M332.894 12.6909C336.725 12.6909 339.793 13.8942 342.097 16.301C344.402 18.7078 345.554 21.9723 345.554 26.0944V46.0751H339.878V26.4189C339.878 23.8151 339.159 21.7753 337.722 20.2995C336.285 18.8238 334.306 18.0859 331.785 18.0859C328.868 18.0859 326.563 18.986 324.871 20.7863C323.178 22.5866 322.33 25.2715 322.326 28.8411V46.0867H316.65V13.5311H322.326V18.2192C324.584 14.5336 328.107 12.6889 332.894 12.6851" fill="white"/>
<path d="M355.728 22.3218C355.728 24.4002 357.881 26.0267 362.188 27.2011C363.562 27.4886 364.919 27.8464 366.255 28.2731C367.521 28.7142 368.744 29.2689 369.91 29.9305C371.172 30.6079 372.222 31.6208 372.943 32.8569C373.931 34.7384 374.231 36.9047 373.791 38.983C373.351 41.0613 372.198 42.9216 370.531 44.2438C368.207 46.0209 365.302 46.9094 361.817 46.9094C358.968 46.9853 356.153 46.2754 353.683 44.858C351.488 43.5926 349.778 41.6357 348.82 39.295L353.712 36.496C354.218 38.04 355.258 39.3543 356.646 40.2048C358.195 41.1466 359.985 41.6215 361.799 41.5723C363.439 41.655 365.069 41.2711 366.499 40.4655C367.063 40.12 367.522 39.629 367.829 39.0445C368.136 38.4601 368.279 37.8038 368.242 37.1451C368.242 34.9314 366.089 33.3263 361.782 32.3295C360.347 31.9413 359.26 31.6342 358.516 31.4198C357.483 31.0955 356.47 30.7085 355.484 30.2608C354.419 29.8354 353.436 29.2296 352.579 28.4702C351.845 27.7281 351.238 26.8706 350.783 25.932C350.23 24.8324 349.951 23.6158 349.97 22.3856C349.944 21.0545 350.225 19.7352 350.791 18.5295C351.357 17.3239 352.193 16.264 353.235 15.4317C355.583 13.5658 358.52 12.596 361.52 12.6966C363.999 12.6516 366.445 13.2699 368.603 14.4872C370.621 15.6388 372.242 17.3746 373.251 19.465L368.486 22.1306C367.324 19.3529 365 17.9641 361.514 17.9641C360.046 17.9052 358.596 18.3108 357.372 19.1231C356.846 19.4696 356.418 19.9441 356.127 20.5018C355.836 21.0595 355.693 21.6819 355.71 22.3102" fill="white"/>
</g>
<defs>
<clipPath id="clip0_12_500">
<rect width="374" height="60" fill="white"/>
</clipPath>
</defs>
</svg>
