<svg width="108" height="108" viewBox="0 0 108 108" fill="none" xmlns="http://www.w3.org/2000/svg">
<g clip-path="url(#clip0_37_1274)">
<path d="M53.39 -1.12153e-05C67.48 -0.0600112 78.54 11.48 77.65 25C77.05 34.07 72.52 40.77 64.44 45C64.0926 45.1344 63.7994 45.3799 63.6059 45.6981C63.4124 46.0164 63.3295 46.3897 63.37 46.76C63.37 63.76 63.37 80.67 63.37 97.63C63.3952 98.1921 63.2953 98.7529 63.0774 99.2717C62.8595 99.7905 62.5291 100.254 62.11 100.63C59.86 102.77 57.7 105 55.49 107.18C54.35 108.31 53.54 108.3 52.38 107.18C50.05 104.86 47.7 102.56 45.38 100.18C44.9126 99.6386 44.629 98.9628 44.57 98.25C44.49 96.8111 44.49 95.3689 44.57 93.93C44.5318 92.8637 44.9138 91.825 45.6339 91.0376C46.354 90.2501 47.3545 89.777 48.42 89.72C49.34 89.61 49.73 89.21 49.7 88.29C49.67 87.37 49.7 86.29 49.7 85.29C49.7166 85.146 49.7035 85.0001 49.6614 84.8614C49.6194 84.7226 49.5494 84.594 49.4556 84.4834C49.3619 84.3728 49.2465 84.2826 49.1165 84.2183C48.9865 84.1541 48.8448 84.1173 48.7 84.11C45.75 83.6 44.61 82.21 44.6 79.2C44.6 78.2 44.6 77.27 44.6 76.31C44.6179 75.3258 44.9982 74.3828 45.6679 73.6614C46.3376 72.94 47.2499 72.4909 48.23 72.4C49.42 72.28 49.86 71.8 49.77 70.64C49.7 69.75 49.77 68.86 49.77 67.98C49.791 67.8332 49.7813 67.6835 49.7414 67.5407C49.7015 67.3978 49.6324 67.2648 49.5383 67.15C49.4443 67.0353 49.3274 66.9414 49.1952 66.8742C49.0629 66.8071 48.9181 66.7682 48.77 66.76C45.7 66.18 44.64 64.89 44.64 61.76C44.64 56.7 44.64 51.64 44.64 46.58C44.6787 46.242 44.6006 45.901 44.4187 45.6136C44.2368 45.3262 43.962 45.1096 43.64 45C39.1077 42.8045 35.394 39.2202 33.0395 34.7684C30.685 30.3166 29.8124 25.2296 30.5486 20.2476C31.2849 15.2656 33.5916 10.6485 37.1332 7.06807C40.6747 3.48762 45.2663 1.13061 50.24 0.339985C51.46 0.149985 52.72 0.0699888 53.39 -1.12153e-05ZM54.05 104C55.82 102.18 57.43 100.45 59.13 98.82C59.4372 98.5413 59.6776 98.197 59.8334 97.8127C59.9892 97.4284 60.0564 97.0139 60.03 96.6C60.03 79.42 60.03 62.2466 60.03 45.08C60.03 43.43 60.24 43.08 61.73 42.49C66.0917 40.7077 69.6989 37.4657 71.9349 33.3183C74.171 29.1708 74.897 24.3755 73.9888 19.752C73.0807 15.1286 70.5947 10.9641 66.956 7.97063C63.3173 4.97714 58.7518 3.3405 54.04 3.3405C49.3282 3.3405 44.7627 4.97714 41.124 7.97063C37.4853 10.9641 34.9994 15.1286 34.0912 19.752C33.183 24.3755 33.909 29.1708 36.145 33.3183C38.3811 37.4657 41.9883 40.7077 46.35 42.49C46.8803 42.6442 47.3394 42.9804 47.6466 43.4394C47.9538 43.8983 48.0896 44.4509 48.03 45C48.03 50.62 48.03 56.23 48.03 61.84C48.03 62.84 48.31 63.28 49.36 63.42C50.4434 63.5144 51.447 64.0284 52.1569 64.8522C52.8667 65.676 53.2267 66.7445 53.16 67.83C53.16 68.83 53.16 69.83 53.16 70.83C53.16 73.7 51.88 75.23 49.06 75.65C48.33 75.76 48.06 76.09 48.06 76.8C48.105 77.576 48.105 78.354 48.06 79.13C47.97 80.2 48.39 80.63 49.47 80.76C50.5111 80.8657 51.4736 81.3618 52.1638 82.1485C52.854 82.9351 53.2206 83.9539 53.19 85C53.19 86.11 53.19 87.22 53.19 88.33C53.2434 88.9038 53.1793 89.4826 53.0016 90.0308C52.8238 90.579 52.5362 91.0852 52.1562 91.5185C51.7762 91.9518 51.3119 92.3032 50.7916 92.551C50.2713 92.7988 49.7059 92.938 49.13 92.96C48.972 92.9461 48.8129 92.9699 48.666 93.0296C48.519 93.0893 48.3883 93.1831 48.2848 93.3033C48.1812 93.4235 48.1077 93.5666 48.0704 93.7207C48.033 93.8749 48.0329 94.0357 48.07 94.19C48.07 95.19 48.07 96.26 48.07 97.29C48.0717 97.6548 48.1988 98.0078 48.43 98.29C50.19 100.17 52.04 102.02 54.05 104.04V104Z" fill="url(#paint0_linear_37_1274)"/>
<path d="M24.08 71.49C19.61 71.49 15.14 71.49 10.67 71.49C10.3876 71.4525 10.1006 71.506 9.85067 71.6426C9.60072 71.7793 9.40081 71.992 9.27999 72.25C8.74888 73.2358 7.89305 74.0074 6.85772 74.434C5.82239 74.8605 4.67136 74.9156 3.6 74.59C2.56091 74.2772 1.65178 73.6348 1.00988 72.7599C0.367985 71.8849 0.0281615 70.8249 0.0417108 69.7399C0.0552601 68.6548 0.421472 67.6036 1.08502 66.7449C1.74856 65.8863 2.67342 65.2668 3.71999 64.98C4.78226 64.6943 5.90971 64.7736 6.92153 65.2052C7.93335 65.6368 8.77095 66.3956 9.30001 67.36C9.41425 67.6228 9.61028 67.8416 9.85894 67.9839C10.1076 68.1263 10.3956 68.1845 10.68 68.15C19.47 68.15 28.25 68.15 37.04 68.15C37.45 68.15 37.96 68.03 38.24 68.23C38.8049 68.5563 39.2633 69.039 39.56 69.62C39.6172 69.7992 39.6364 69.9885 39.6162 70.1755C39.596 70.3626 39.5369 70.5434 39.4428 70.7063C39.3486 70.8692 39.2214 71.0106 39.0694 71.1215C38.9174 71.2323 38.7439 71.3102 38.56 71.35C38.14 71.4826 37.7 71.5401 37.26 71.52L24.08 71.49ZM5.02001 68.2C4.80832 68.196 4.59795 68.2346 4.40145 68.3134C4.20495 68.3923 4.02631 68.5098 3.87612 68.659C3.72594 68.8083 3.60729 68.9862 3.52722 69.1822C3.44714 69.3782 3.40728 69.5883 3.41 69.8C3.41 70.2217 3.57751 70.6261 3.8757 70.9243C4.17388 71.2225 4.5783 71.39 4.99999 71.39C5.42169 71.39 5.82611 71.2225 6.12429 70.9243C6.42247 70.6261 6.58999 70.2217 6.58999 69.8C6.59266 69.3801 6.42906 68.976 6.13491 68.6763C5.84076 68.3765 5.43997 68.2053 5.02001 68.2Z" fill="url(#paint1_linear_37_1274)"/>
<path d="M83.93 71.49H70.74C70.3008 71.5072 69.8618 71.4532 69.44 71.33C69.2561 71.2902 69.0826 71.2123 68.9306 71.1014C68.7786 70.9906 68.6514 70.8492 68.5572 70.6863C68.4631 70.5234 68.404 70.3426 68.3838 70.1555C68.3636 69.9685 68.3828 69.7793 68.44 69.6C68.729 69.0143 69.1848 68.5272 69.75 68.2C70.04 68 70.54 68.12 70.95 68.12C79.7 68.12 88.45 68.12 97.21 68.12C97.5272 68.1575 97.8481 68.0936 98.1266 67.9373C98.4051 67.7809 98.6268 67.5403 98.76 67.25C99.2903 66.307 100.121 65.5684 101.119 65.1516C102.118 64.7349 103.227 64.6639 104.27 64.95C105.317 65.2357 106.242 65.8542 106.907 66.7122C107.571 67.5701 107.939 68.621 107.953 69.7061C107.968 70.7911 107.629 71.8516 106.988 72.7272C106.347 73.6029 105.439 74.2461 104.4 74.56C103.347 74.8775 102.217 74.829 101.194 74.4222C100.172 74.0155 99.3174 73.2745 98.77 72.32C98.6373 72.0278 98.4138 71.7862 98.1327 71.6312C97.8516 71.4763 97.528 71.4162 97.21 71.46C92.79 71.51 88.36 71.49 83.93 71.49ZM104.63 69.77C104.632 69.5574 104.59 69.3467 104.507 69.1509C104.424 68.955 104.302 68.7781 104.149 68.6311C103.995 68.4841 103.813 68.37 103.614 68.2958C103.415 68.2217 103.202 68.1891 102.99 68.2C102.778 68.205 102.569 68.2526 102.376 68.34C102.183 68.4273 102.01 68.5527 101.866 68.7085C101.722 68.8643 101.611 69.0475 101.54 69.247C101.468 69.4466 101.438 69.6584 101.45 69.87C101.463 70.2917 101.643 70.6909 101.951 70.9797C102.259 71.2685 102.668 71.4233 103.09 71.41C103.512 71.3968 103.911 71.2166 104.2 70.909C104.488 70.6014 104.643 70.1917 104.63 69.77Z" fill="url(#paint2_linear_37_1274)"/>
<path d="M82.34 55.84C82.34 52.66 82.34 49.64 82.34 46.62C82.34 46.32 81.84 45.98 81.51 45.76C80.6494 45.2701 79.9599 44.5281 79.5343 43.634C79.1087 42.7399 78.9676 41.7368 79.13 40.76C79.2774 39.8208 79.6895 38.9431 80.318 38.2298C80.9465 37.5165 81.7653 36.9972 82.6784 36.7327C83.5916 36.4682 84.5612 36.4695 85.4736 36.7365C86.386 37.0034 87.2034 37.525 87.83 38.24C88.3152 38.788 88.6709 39.438 88.8708 40.1421C89.0707 40.8462 89.1097 41.5862 88.9849 42.3074C88.8601 43.0286 88.5746 43.7125 88.1496 44.3084C87.7247 44.9043 87.1712 45.397 86.53 45.75C86.268 45.8603 86.0485 46.0523 85.9044 46.2973C85.7603 46.5423 85.6991 46.8274 85.73 47.11C85.73 50.43 85.73 53.76 85.73 57.11C85.73 58.66 85.15 59.26 83.59 59.27H70.49C69.09 59.27 68.37 58.64 68.39 57.54C68.41 56.44 69.13 55.87 70.55 55.86H82.34V55.84ZM84 43.11C84.4296 43.11 84.8417 42.9393 85.1455 42.6355C85.4493 42.3317 85.62 41.9196 85.62 41.49C85.62 41.0603 85.4493 40.6483 85.1455 40.3445C84.8417 40.0407 84.4296 39.87 84 39.87C83.5703 39.87 83.1583 40.0407 82.8545 40.3445C82.5507 40.6483 82.38 41.0603 82.38 41.49C82.38 41.9196 82.5507 42.3317 82.8545 42.6355C83.1583 42.9393 83.5703 43.11 84 43.11Z" fill="url(#paint3_linear_37_1274)"/>
<path d="M25.63 55.84H36.41C36.9262 55.8099 37.4437 55.8099 37.96 55.84C38.1832 55.8394 38.4042 55.885 38.609 55.9738C38.8138 56.0626 38.998 56.1927 39.1501 56.3561C39.3022 56.5195 39.4189 56.7126 39.4929 56.9232C39.5669 57.1338 39.5965 57.3574 39.58 57.58C39.5842 57.7943 39.5447 58.0072 39.464 58.2057C39.3833 58.4043 39.2631 58.5843 39.1106 58.7349C38.9581 58.8855 38.7766 59.0036 38.5771 59.0818C38.3775 59.16 38.1642 59.1969 37.95 59.19C36.88 59.26 35.81 59.19 34.74 59.19H24.69C22.83 59.19 22.31 58.66 22.3 56.83C22.3 53.54 22.3 50.25 22.3 46.97C22.3356 46.7216 22.2883 46.4684 22.1654 46.2496C22.0424 46.0308 21.8507 45.8587 21.62 45.76C20.623 45.253 19.8333 44.4151 19.3863 43.3897C18.9393 42.3644 18.8629 41.2156 19.17 40.14C19.3764 39.3334 19.7809 38.5911 20.3468 37.9805C20.9128 37.3698 21.6222 36.9102 22.4109 36.6432C23.1995 36.3763 24.0423 36.3105 24.8628 36.4519C25.6833 36.5932 26.4555 36.9372 27.1094 37.4526C27.7632 37.968 28.278 38.6386 28.607 39.4034C28.936 40.1682 29.0689 41.0031 28.9934 41.8323C28.918 42.6614 28.6367 43.4586 28.1751 44.1515C27.7135 44.8444 27.0861 45.411 26.35 45.8C26.06 45.98 25.69 46.36 25.68 46.65C25.63 49.69 25.63 52.68 25.63 55.84ZM23.93 39.84C23.6092 39.8461 23.2975 39.9472 23.0343 40.1306C22.7711 40.314 22.5683 40.5714 22.4516 40.8702C22.3348 41.169 22.3094 41.4958 22.3786 41.809C22.4478 42.1223 22.6083 42.4079 22.84 42.6298C23.0717 42.8517 23.3641 42.9998 23.6801 43.0553C23.996 43.1108 24.3214 43.0713 24.6148 42.9417C24.9083 42.8121 25.1567 42.5984 25.3285 42.3275C25.5003 42.0566 25.5879 41.7407 25.58 41.42C25.5504 41.0067 25.3682 40.6192 25.0688 40.3327C24.7694 40.0463 24.3742 39.8814 23.96 39.87L23.93 39.84Z" fill="url(#paint4_linear_37_1274)"/>
<path d="M25.63 83.72C25.63 86.91 25.63 89.97 25.63 93.02C25.63 93.28 26.1 93.6 26.41 93.79C27.1467 94.2109 27.7642 94.8124 28.2044 95.5378C28.6445 96.2633 28.8927 97.0888 28.9258 97.9367C28.9588 98.7846 28.7755 99.6269 28.3931 100.384C28.0108 101.142 27.4419 101.79 26.7402 102.267C26.0384 102.744 25.2268 103.034 24.3818 103.111C23.5367 103.188 22.6861 103.048 21.9099 102.705C21.1336 102.363 20.4574 101.828 19.9449 101.152C19.4323 100.475 19.1003 99.6799 18.98 98.84C18.832 97.8518 18.9915 96.842 19.4369 95.9475C19.8824 95.0531 20.5922 94.3173 21.47 93.84C21.7311 93.7272 21.9484 93.5326 22.0891 93.2854C22.2299 93.0382 22.2863 92.752 22.25 92.47C22.25 89.15 22.25 85.83 22.25 82.47C22.25 80.95 22.81 80.35 24.25 80.35C28.68 80.35 33.11 80.35 37.54 80.35C38.54 80.35 39.29 80.68 39.54 81.73C39.79 82.78 38.96 83.73 37.63 83.73C34.09 83.73 30.55 83.73 27 83.73L25.63 83.72ZM25.57 98.1199C25.57 97.6903 25.3993 97.2782 25.0955 96.9744C24.7917 96.6706 24.3797 96.4999 23.95 96.4999C23.5204 96.4999 23.1083 96.6706 22.8045 96.9744C22.5007 97.2782 22.33 97.6903 22.33 98.1199C22.33 98.5496 22.5007 98.9617 22.8045 99.2655C23.1083 99.5693 23.5204 99.74 23.95 99.74C24.3797 99.74 24.7917 99.5693 25.0955 99.2655C25.3993 98.9617 25.57 98.5496 25.57 98.1199Z" fill="url(#paint5_linear_37_1274)"/>
<path d="M82.34 83.72H70.99C70.6236 83.7402 70.2564 83.7402 69.89 83.72C69.6771 83.7048 69.4692 83.6477 69.2784 83.5519C69.0876 83.4561 68.9177 83.3235 68.7783 83.1618C68.6389 83.0001 68.5328 82.8125 68.4662 82.6097C68.3996 82.4068 68.3737 82.1929 68.39 81.98C68.3833 81.7741 68.4182 81.5689 68.4927 81.3768C68.5672 81.1847 68.6797 81.0096 68.8235 80.862C68.9674 80.7145 69.1395 80.5975 69.3296 80.5181C69.5197 80.4387 69.724 80.3986 69.93 80.4C70.93 80.33 71.85 80.4 72.81 80.4H83.32C85.19 80.4 85.7 80.9 85.7 82.74C85.7 86.0334 85.7 89.3167 85.7 92.59C85.6694 92.8379 85.7188 93.089 85.8412 93.3067C85.9635 93.5245 86.1524 93.6973 86.38 93.8C87.3676 94.3121 88.1497 95.1474 88.5956 96.1666C89.0415 97.1858 89.1242 98.3272 88.83 99.4C88.5356 100.461 87.8992 101.395 87.0197 102.057C86.1401 102.72 85.0665 103.073 83.9655 103.063C82.8644 103.053 81.7976 102.679 80.9305 102.001C80.0634 101.322 79.4446 100.376 79.17 99.31C78.9074 98.2244 79.0159 97.0822 79.478 96.0655C79.9402 95.0487 80.7295 94.216 81.72 93.7C81.97 93.56 82.31 93.27 82.31 93.04C82.35 89.97 82.34 86.92 82.34 83.72ZM85.63 98.19C85.6458 97.77 85.4977 97.3604 85.2172 97.0475C84.9366 96.7347 84.5454 96.5431 84.1262 96.5133C83.707 96.4834 83.2927 96.6176 82.9706 96.8876C82.6485 97.1575 82.4439 97.5421 82.4 97.96C82.3842 98.38 82.5323 98.7896 82.8129 99.1025C83.0935 99.4153 83.4846 99.6069 83.9038 99.6368C84.323 99.6666 84.7374 99.5324 85.0594 99.2624C85.3815 98.9925 85.5861 98.6079 85.63 98.19Z" fill="url(#paint6_linear_37_1274)"/>
<path d="M54.05 21.2401C52.9142 21.246 51.8022 20.9142 50.8554 20.2869C49.9085 19.6596 49.1694 18.765 48.732 17.7167C48.2946 16.6685 48.1786 15.5139 48.3988 14.3996C48.6189 13.2853 49.1652 12.2616 49.9684 11.4584C50.7715 10.6553 51.7953 10.1089 52.9096 9.8888C54.0239 9.66867 55.1785 9.78465 56.2267 10.2221C57.2749 10.6595 58.1695 11.3985 58.7969 12.3454C59.4242 13.2923 59.7559 14.4043 59.75 15.5401C59.7421 17.0494 59.1391 18.4946 58.0718 19.5619C57.0046 20.6291 55.5593 21.2322 54.05 21.2401ZM54 13.2401C53.5374 13.2421 53.0856 13.3807 52.7014 13.6383C52.3172 13.896 52.0176 14.2614 51.8401 14.6887C51.6626 15.1159 51.6153 15.586 51.7039 16.0401C51.7925 16.4942 52.0131 16.912 52.3382 17.2412C52.6633 17.5704 53.0782 17.7963 53.5312 17.8907C53.9841 17.985 54.4548 17.9435 54.8843 17.7715C55.3137 17.5995 55.6829 17.3045 55.9454 16.9235C56.2079 16.5426 56.3521 16.0927 56.36 15.6301C56.3736 15.3128 56.3225 14.996 56.2097 14.6991C56.0969 14.4022 55.9249 14.1314 55.7041 13.9031C55.4833 13.6749 55.2184 13.4939 54.9254 13.3713C54.6325 13.2487 54.3176 13.1871 54 13.1901V13.2401Z" fill="url(#paint7_linear_37_1274)"/>
</g>
<defs>
<linearGradient id="paint0_linear_37_1274" x1="30.2944" y1="-0.000244141" x2="91.5193" y2="8.50103" gradientUnits="userSpaceOnUse">
<stop stop-color="#252FF2"/>
<stop offset="1" stop-color="#0B9CFF"/>
</linearGradient>
<linearGradient id="paint1_linear_37_1274" x1="0.0413208" y1="64.8115" x2="20.2982" y2="90.2119" gradientUnits="userSpaceOnUse">
<stop stop-color="#252FF2"/>
<stop offset="1" stop-color="#0B9CFF"/>
</linearGradient>
<linearGradient id="paint2_linear_37_1274" x1="68.376" y1="64.7773" x2="88.6379" y2="90.1764" gradientUnits="userSpaceOnUse">
<stop stop-color="#252FF2"/>
<stop offset="1" stop-color="#0B9CFF"/>
</linearGradient>
<linearGradient id="paint3_linear_37_1274" x1="68.3896" y1="36.5353" x2="93.5168" y2="43.7625" gradientUnits="userSpaceOnUse">
<stop stop-color="#252FF2"/>
<stop offset="1" stop-color="#0B9CFF"/>
</linearGradient>
<linearGradient id="paint4_linear_37_1274" x1="18.9847" y1="36.3793" x2="44.0606" y2="43.5346" gradientUnits="userSpaceOnUse">
<stop stop-color="#252FF2"/>
<stop offset="1" stop-color="#0B9CFF"/>
</linearGradient>
<linearGradient id="paint5_linear_37_1274" x1="18.9263" y1="80.35" x2="44.0523" y2="87.5591" gradientUnits="userSpaceOnUse">
<stop stop-color="#252FF2"/>
<stop offset="1" stop-color="#0B9CFF"/>
</linearGradient>
<linearGradient id="paint6_linear_37_1274" x1="68.3853" y1="80.3689" x2="93.4551" y2="87.5754" gradientUnits="userSpaceOnUse">
<stop stop-color="#252FF2"/>
<stop offset="1" stop-color="#0B9CFF"/>
</linearGradient>
<linearGradient id="paint7_linear_37_1274" x1="48.2901" y1="9.78015" x2="62.0032" y2="14.1191" gradientUnits="userSpaceOnUse">
<stop stop-color="#252FF2"/>
<stop offset="1" stop-color="#0B9CFF"/>
</linearGradient>
<clipPath id="clip0_37_1274">
<rect width="108" height="108" fill="white"/>
</clipPath>
</defs>
</svg>
