<svg width="48" height="48" viewBox="0 0 48 48" fill="none" xmlns="http://www.w3.org/2000/svg">
<path d="M42.75 10.1786C43.25 10.6786 43.6786 11.3571 44.0357 12.2143C44.3929 13.0714 44.5714 13.8571 44.5714 14.5714V45.4286C44.5714 46.1429 44.3214 46.75 43.8214 47.25C43.3214 47.75 42.7143 48 42 48H6.00002C5.28573 48 4.67859 47.75 4.17859 47.25C3.67859 46.75 3.42859 46.1429 3.42859 45.4286V2.57143C3.42859 1.85714 3.67859 1.25 4.17859 0.75C4.67859 0.25 5.28573 0 6.00002 0H30C30.7143 0 31.5 0.178571 32.3572 0.535714C33.2143 0.892857 33.8929 1.32143 34.3929 1.82143L42.75 10.1786ZM30.8572 3.64286V13.7143H40.9286C40.75 13.1964 40.5536 12.8304 40.3393 12.6161L31.9554 4.23214C31.7411 4.01786 31.375 3.82143 30.8572 3.64286ZM41.1429 44.5714V17.1429H30C29.2857 17.1429 28.6786 16.8929 28.1786 16.3929C27.6786 15.8929 27.4286 15.2857 27.4286 14.5714V3.42857H6.85716V44.5714H41.1429ZM13.7143 21.4286C13.7143 21.1786 13.7947 20.9732 13.9554 20.8125C14.1161 20.6518 14.3214 20.5714 14.5714 20.5714H33.4286C33.6786 20.5714 33.8839 20.6518 34.0447 20.8125C34.2054 20.9732 34.2857 21.1786 34.2857 21.4286V23.1429C34.2857 23.3929 34.2054 23.5982 34.0447 23.7589C33.8839 23.9196 33.6786 24 33.4286 24H14.5714C14.3214 24 14.1161 23.9196 13.9554 23.7589C13.7947 23.5982 13.7143 23.3929 13.7143 23.1429V21.4286ZM33.4286 27.4286C33.6786 27.4286 33.8839 27.5089 34.0447 27.6696C34.2054 27.8304 34.2857 28.0357 34.2857 28.2857V30C34.2857 30.25 34.2054 30.4554 34.0447 30.6161C33.8839 30.7768 33.6786 30.8571 33.4286 30.8571H14.5714C14.3214 30.8571 14.1161 30.7768 13.9554 30.6161C13.7947 30.4554 13.7143 30.25 13.7143 30V28.2857C13.7143 28.0357 13.7947 27.8304 13.9554 27.6696C14.1161 27.5089 14.3214 27.4286 14.5714 27.4286H33.4286ZM33.4286 34.2857C33.6786 34.2857 33.8839 34.3661 34.0447 34.5268C34.2054 34.6875 34.2857 34.8929 34.2857 35.1429V36.8571C34.2857 37.1071 34.2054 37.3125 34.0447 37.4732C33.8839 37.6339 33.6786 37.7143 33.4286 37.7143H14.5714C14.3214 37.7143 14.1161 37.6339 13.9554 37.4732C13.7947 37.3125 13.7143 37.1071 13.7143 36.8571V35.1429C13.7143 34.8929 13.7947 34.6875 13.9554 34.5268C14.1161 34.3661 14.3214 34.2857 14.5714 34.2857H33.4286Z" fill="white"/>
</svg>
