<svg width="48" height="48" viewBox="0 0 48 48" fill="none" xmlns="http://www.w3.org/2000/svg">
<path d="M43.4118 43H4.58824C3.03529 43 2 41.9867 2 40.4667V7.53333C2 6.01333 3.03529 5 4.58824 5H43.4118C44.9647 5 46 6.01333 46 7.53333V40.4667C46 41.9867 44.9647 43 43.4118 43Z" stroke="white" stroke-width="3" stroke-miterlimit="10" stroke-linecap="round" stroke-linejoin="round"/>
<path d="M15.6 24C14.88 24 14.4 24.48 14.4 25.2V29.52L12.72 27.84C12.24 27.36 11.52 27.36 11.04 27.84L9.6 29.52V25.2C9.6 24.48 9.12 24 8.4 24C7.68 24 7.2 24.48 7.2 25.2V32.88L7.92 33.6H8.88C9.12 33.6 9.12 33.36 9.36 33.36L12 30.48L14.88 33.36H15.12C15.12 33.36 15.36 33.36 15.36 33.6H16.32C16.32 33.6 16.56 33.6 16.56 33.36C16.56 33.36 16.8 33.36 16.8 33.12V25.2C16.8 24.48 16.32 24 15.6 24ZM27.6 24C26.88 24 26.4 24.48 26.4 25.2V29.52L24.72 27.84C24.24 27.36 23.52 27.36 23.04 27.84L21.6 29.52V25.2C21.6 24.48 21.12 24 20.4 24C19.68 24 19.2 24.48 19.2 25.2V32.88L19.92 33.6H20.88C21.12 33.6 21.12 33.36 21.36 33.36L24 30.48L26.88 33.36H27.12C27.12 33.36 27.36 33.36 27.36 33.6H28.32C28.32 33.6 28.56 33.6 28.56 33.36C28.56 33.36 28.8 33.36 28.8 33.12V25.2C28.8 24.48 28.32 24 27.6 24ZM39.6 24C38.88 24 38.4 24.48 38.4 25.2V29.52L36.72 27.84C36.24 27.36 35.52 27.36 35.04 27.84L33.6 29.52V25.2C33.6 24.48 33.12 24 32.4 24C31.68 24 31.2 24.48 31.2 25.2V32.88L31.92 33.6H32.88C33.12 33.6 33.12 33.36 33.36 33.36L36 30.48L38.88 33.36H39.12C39.12 33.36 39.36 33.36 39.36 33.6H40.32C40.32 33.6 40.56 33.6 40.56 33.36C40.56 33.36 40.8 33.36 40.8 33.12V25.2C40.8 24.48 40.32 24 39.6 24Z" fill="white"/>
<path d="M37.2 12C37.8627 12 38.4 11.4627 38.4 10.8C38.4 10.1373 37.8627 9.60001 37.2 9.60001C36.5373 9.60001 36 10.1373 36 10.8C36 11.4627 36.5373 12 37.2 12Z" fill="white"/>
<path d="M32.4 12C33.0627 12 33.6 11.4627 33.6 10.8C33.6 10.1373 33.0627 9.60001 32.4 9.60001C31.7373 9.60001 31.2 10.1373 31.2 10.8C31.2 11.4627 31.7373 12 32.4 12Z" fill="white"/>
<path d="M27.6 12C28.2627 12 28.8 11.4627 28.8 10.8C28.8 10.1373 28.2627 9.60001 27.6 9.60001C26.9373 9.60001 26.4 10.1373 26.4 10.8C26.4 11.4627 26.9373 12 27.6 12Z" fill="white"/>
<path d="M3 15H45" stroke="white" stroke-width="3" stroke-miterlimit="10" stroke-linecap="round" stroke-linejoin="round"/>
</svg>
