<svg width="20px" height="20px" viewBox="0 0 14.08 14.08" xmlns="http://www.w3.org/2000/svg" xmlns:xlink="http://www.w3.org/1999/xlink" aria-hidden="true" role="img" class="iconify iconify--fxemoji" preserveAspectRatio="xMidYMid meet"><path fill="#F9E7C0" d="M12.033 14.08H2.42a0.225 0.225 0 0 1 -0.225 -0.225V0.225A0.225 0.225 0 0 1 2.42 0H12.04a0.218 0.218 0 0 1 0.218 0.218v13.637a0.225 0.225 0 0 1 -0.225 0.225z"/><path fill="#597B91" d="M10.14 2.541H3.477c-0.169 0 -0.306 -0.137 -0.306 -0.306s0.137 -0.306 0.306 -0.306h6.663c0.169 0 0.306 0.137 0.306 0.306s-0.137 0.306 -0.306 0.306zm-1.116 1.697c0 -0.169 -0.137 -0.306 -0.306 -0.306H3.477c-0.169 0 -0.306 0.137 -0.306 0.306s0.137 0.306 0.306 0.306H8.717c0.169 0 0.306 -0.137 0.306 -0.306zm-2.666 2.003c0 -0.169 -0.137 -0.306 -0.306 -0.306h-2.574c-0.169 0 -0.306 0.137 -0.306 0.306s0.137 0.306 0.306 0.306h2.574c0.169 0 0.306 -0.137 0.306 -0.306zm2.999 2.003c0 -0.169 -0.137 -0.306 -0.306 -0.306H3.477c-0.169 0 -0.306 0.137 -0.306 0.306s0.137 0.306 0.306 0.306h5.573c0.169 0 0.306 -0.137 0.306 -0.306zm1.372 -2.003c0 -0.169 -0.137 -0.306 -0.306 -0.306H7.607c-0.169 0 -0.306 0.137 -0.306 0.306s0.137 0.306 0.306 0.306H10.422c0.169 0 0.306 -0.137 0.306 -0.306zm-2.54 4.007c0 -0.169 -0.137 -0.306 -0.306 -0.306H3.477c-0.169 0 -0.306 0.137 -0.306 0.306s0.137 0.306 0.306 0.306H7.882c0.169 0 0.306 -0.137 0.306 -0.306zm1.829 2.003c0 -0.169 -0.137 -0.306 -0.306 -0.306H3.477c-0.169 0 -0.306 0.137 -0.306 0.306s0.137 0.306 0.306 0.306h6.233c0.169 0 0.306 -0.137 0.306 -0.306zm0.712 -2.003c0 -0.169 -0.137 -0.306 -0.306 -0.306h-1.423c-0.169 0 -0.306 0.137 -0.306 0.306s0.137 0.306 0.306 0.306H10.422c0.169 0 0.306 -0.137 0.306 -0.306z"/></svg>