<svg fill="#ffffff" width="48px" height="48px" viewBox="-0.12 0 1.14 1.14" xmlns="http://www.w3.org/2000/svg" class="cf-icon-svg"><path d="M0.867 0.267a0.097 0.097 0 0 1 -0.097 0.097h-0.03v0.504a0.097 0.097 0 0 1 -0.097 0.097H0.13a0.097 0.097 0 1 1 0 -0.194h0.03V0.267A0.097 0.097 0 0 1 0.257 0.17h0.512a0.097 0.097 0 0 1 0.097 0.097zM0.13 0.898h0.42a0.097 0.097 0 0 1 0 -0.061H0.13a0.03 0.03 0 0 0 0 0.061zm0.543 -0.631a0.097 0.097 0 0 1 0.005 -0.03H0.257a0.03 0.03 0 0 0 -0.019 0.006l0 0a0.03 0.03 0 0 0 -0.012 0.024v0.504h0.38a0.037 0.037 0 0 1 0.036 0.028 0.038 0.038 0 0 1 -0.015 0.042 0.03 0.03 0 1 0 0.045 0.027zm-0.052 0.086h-0.346V0.419h0.346zm0 0.136h-0.346V0.555h0.346zm0 0.136h-0.346v0.066h0.346zm0.179 -0.357a0.03 0.03 0 0 0 -0.03 -0.03 0.03 0.03 0 0 0 -0.019 0.006h0a0.03 0.03 0 0 0 -0.012 0.024v0.03h0.03a0.03 0.03 0 0 0 0.03 -0.03z"/></svg>