<svg width="48" height="48" viewBox="0 0 48 48" fill="none" xmlns="http://www.w3.org/2000/svg">
<path d="M34 24C34 24.6667 33.4444 25.1111 32.8889 25.1111H25.1111V32.8889C25.1111 33.5556 24.5556 34 24 34C23.4444 34 22.8889 33.5556 22.8889 32.8889V25.1111H15.1111C14.5556 25.1111 14 24.6667 14 24C14 23.3333 14.5556 22.8889 15.1111 22.8889H22.8889V15.1111C22.8889 14.4444 23.4444 14 24 14C24.5556 14 25.1111 14.4444 25.1111 15.1111V22.8889H32.8889C33.4444 22.8889 34 23.3333 34 24Z" fill="white" stroke="white" stroke-width="2"/>
<path d="M24 46C11.9 46 2 36.1 2 24C2 11.9 11.9 2 24 2C28.95 2 33.57 3.65 37.53 6.62C37.97 6.95 38.08 7.72 37.75 8.16C37.42 8.6 36.65 8.71 36.21 8.38C32.69 5.63 28.4 4.2 24 4.2C13.11 4.2 4.2 13.11 4.2 24C4.2 34.89 13.11 43.8 24 43.8C34.89 43.8 43.8 34.89 43.8 24C43.8 20.48 42.81 16.96 41.05 13.88C40.72 13.33 40.94 12.67 41.38 12.34C41.93 12.01 42.59 12.23 42.92 12.67C44.9 16.19 46 20.04 46 24C46 36.1 36.1 46 24 46Z" fill="white" stroke="white" stroke-width="2"/>
</svg>
