<svg width="24" height="20" viewBox="0 0 24 20" fill="none" xmlns="http://www.w3.org/2000/svg">
<path d="M24 2.72357C23.1456 3.16966 21.8526 3.38137 21.4291 3.44186C21.4291 3.41918 21.4216 3.40405 21.4216 3.38137C22.8658 2.47405 23.3119 0.780393 23.3119 0.780393C22.4121 1.29454 21.6181 1.58186 21.0208 1.74064C20.6881 1.83137 20.4083 1.87674 20.2117 1.90698C19.3043 0.976978 18.0416 0.402344 16.6427 0.402344C13.8904 0.402344 11.6522 2.63283 11.6522 5.39259C11.6522 5.49088 11.6522 5.58918 11.6597 5.68747C11.6749 5.92942 11.7051 6.16381 11.7505 6.39064C10.4197 6.36796 5.60302 5.95967 1.61059 1.32478C1.61059 1.32478 -0.612477 5.20357 3.12287 7.84991C3.12287 7.84991 1.61059 7.80455 0.809074 7.23747C0.809074 7.23747 0.574669 10.9726 4.87713 12.1521C4.87713 12.1521 3.36484 12.5302 2.6087 12.1975C2.6087 12.1975 3.36484 15.4109 7.14556 15.6453C7.14556 15.6453 4.431 18.1253 0 17.7699C2.17769 19.146 4.76371 19.9475 7.53119 19.9475C15.3195 19.9475 21.6333 13.6341 21.6333 5.84625C21.6333 5.74796 21.6333 5.64967 21.6333 5.55137C21.6333 5.49088 21.6333 5.43796 21.6333 5.37747C21.6333 5.33967 21.6333 5.2943 21.6333 5.25649C23.0699 4.31137 24 2.72357 24 2.72357Z" fill="white"/>
</svg>
